  0
SECTION
  2
HEADER
  9
$ANGBASE
  50
0.0
  9
$ANGDIR
  70
1
  9
$MEASUREMENT
  70
0
  0
ENDSEC
  0
SECTION
  2
TABLES
  0
TABLE
  2
LTYPE
  70
4
  0
LTYPE
  5
40F
  2
CONTINUOUS
  70
0
  3
Solid line
  72
65
  73
0
  40
0.0
  0
LTYPE
  5
410
  2
DASHDOT
 70
0
  3
Dash Dot ____ _ ____ _
 72
65
 73
4
 40
2.0
 49
1.25
 49
-0.25
 49
0.25
 49
-0.25
  0
LTYPE
  5
411
  2
DASHED
 70
0
  3
Dashed __ __ __ __ __
 72
65
 73
2
 40
0.75
 49
0.5
 49
-0.25
  0
LTYPE
  5
43B
  2
DOTTED
 70
0
  3
Dotted .  .  .  .
 72
65
 73
2
 40
0.2
 49
0.0
 49
-0.2
  0
ENDTAB
  0
TABLE
  2
STYLE
  70
4
  0
STYLE
  2
KICAD
  70
0
  40
0
  41
1
  42
1
  50
0
  71
0
  3
isocp.shx
  0
STYLE
  2
KICADB
  70
0
  40
0
  41
1
  42
1
  50
0
  71
0
  3
isocp.shx
  0
STYLE
  2
KICADI
  70
0
  40
0
  41
1
  42
1
  50
15
  71
0
  3
isocp.shx
  0
STYLE
  2
KICADBI
  70
0
  40
0
  41
1
  42
1
  50
15
  71
0
  3
isocp.shx
  0
ENDTAB
  0
TABLE
  2
LAYER
  70
1
  0
LAYER
  2
BLACK
  70
0
  62
7
  6
CONTINUOUS
  0
ENDTAB
  0
ENDSEC
  0
SECTION
  2
ENTITIES
0
CIRCLE
8
BLACK
10
5.89291
20
-1.48425
40
0.0334646
0
CIRCLE
8
BLACK
10
5.49291
20
-1.48425
40
0.0334646
0
CIRCLE
8
BLACK
10
5.69291
20
-1.48425
40
0.0787402
0
CIRCLE
8
BLACK
10
5.54291
20
-1.38425
40
0.0433071
0
CIRCLE
8
BLACK
10
5.79291
20
-1.28425
40
0.0433071
0
CIRCLE
8
BLACK
10
4.39291
20
-2.23425
40
0.0334646
0
CIRCLE
8
BLACK
10
3.99291
20
-2.23425
40
0.0334646
0
CIRCLE
8
BLACK
10
4.19291
20
-2.23425
40
0.0787402
0
CIRCLE
8
BLACK
10
4.04291
20
-2.13425
40
0.0433071
0
CIRCLE
8
BLACK
10
4.29291
20
-2.03425
40
0.0433071
0
CIRCLE
8
BLACK
10
4.48291
20
-1.82425
40
0.04
0
CIRCLE
8
BLACK
10
4.78291
20
-1.82425
40
0.04
0
CIRCLE
8
BLACK
10
4.68291
20
-1.82425
40
0.04
0
CIRCLE
8
BLACK
10
4.38291
20
-1.82425
40
0.04
0
CIRCLE
8
BLACK
10
4.58291
20
-1.82425
40
0.04
0
CIRCLE
8
BLACK
10
3.88291
20
-1.82425
40
0.04
0
CIRCLE
8
BLACK
10
3.98291
20
-1.82425
40
0.04
0
CIRCLE
8
BLACK
10
4.08291
20
-1.82425
40
0.04
0
CIRCLE
8
BLACK
10
4.18291
20
-1.82425
40
0.04
0
CIRCLE
8
BLACK
10
4.98291
20
-1.82425
40
0.04
0
CIRCLE
8
BLACK
10
4.88291
20
-1.82425
40
0.04
0
CIRCLE
8
BLACK
10
4.28291
20
-1.82425
40
0.04
0
CIRCLE
8
BLACK
10
3.88291
20
-1.22425
40
0.04
0
CIRCLE
8
BLACK
10
3.98291
20
-1.22425
40
0.04
0
CIRCLE
8
BLACK
10
4.08291
20
-1.22425
40
0.04
0
CIRCLE
8
BLACK
10
4.18291
20
-1.22425
40
0.04
0
CIRCLE
8
BLACK
10
4.28291
20
-1.22425
40
0.04
0
CIRCLE
8
BLACK
10
4.38291
20
-1.22425
40
0.04
0
CIRCLE
8
BLACK
10
4.48291
20
-1.22425
40
0.04
0
CIRCLE
8
BLACK
10
4.58291
20
-1.22425
40
0.04
0
CIRCLE
8
BLACK
10
4.68291
20
-1.22425
40
0.04
0
CIRCLE
8
BLACK
10
4.78291
20
-1.22425
40
0.04
0
CIRCLE
8
BLACK
10
4.88291
20
-1.22425
40
0.04
0
CIRCLE
8
BLACK
10
4.98291
20
-1.22425
40
0.04
0
CIRCLE
8
BLACK
10
5.14291
20
-2.23425
40
0.0334646
0
CIRCLE
8
BLACK
10
4.74291
20
-2.23425
40
0.0334646
0
CIRCLE
8
BLACK
10
4.94291
20
-2.23425
40
0.0787402
0
CIRCLE
8
BLACK
10
4.79291
20
-2.13425
40
0.0433071
0
CIRCLE
8
BLACK
10
5.04291
20
-2.03425
40
0.0433071
0
ARC
8
BLACK
10
5.56291
20
-1.03925
40
0.0275591
50
360
51
540
0
ARC
8
BLACK
10
5.56291
20
-1.03925
40
0.0275591
50
180
51
360
0
CIRCLE
8
BLACK
10
5.86291
20
-1.03925
40
0.0275591
0
LINE
8
BLACK
6
CONTINUOUS
10
6.10354
20
-1.34488
11
6.10354
21
-1.42362
0
LINE
8
BLACK
6
CONTINUOUS
10
6.10354
20
-1.42362
11
6.18228
21
-1.42362
0
LINE
8
BLACK
6
CONTINUOUS
10
6.18228
20
-1.42362
11
6.18228
21
-1.34488
0
LINE
8
BLACK
6
CONTINUOUS
10
6.18228
20
-1.34488
11
6.10354
21
-1.34488
0
CIRCLE
8
BLACK
10
6.14291
20
-1.48268
40
0.0393701
0
CIRCLE
8
BLACK
10
6.14291
20
-1.5811
40
0.0393701
0
LINE
8
BLACK
6
CONTINUOUS
10
6.3752
20
-1.22283
11
6.3752
21
-1.30157
0
LINE
8
BLACK
6
CONTINUOUS
10
6.3752
20
-1.30157
11
6.50118
21
-1.30157
0
LINE
8
BLACK
6
CONTINUOUS
10
6.50118
20
-1.30157
11
6.50118
21
-1.22283
0
LINE
8
BLACK
6
CONTINUOUS
10
6.50118
20
-1.22283
11
6.3752
21
-1.22283
0
LINE
8
BLACK
6
CONTINUOUS
10
6.3752
20
-1.66378
11
6.3752
21
-1.74252
0
LINE
8
BLACK
6
CONTINUOUS
10
6.3752
20
-1.74252
11
6.50118
21
-1.74252
0
LINE
8
BLACK
6
CONTINUOUS
10
6.50118
20
-1.74252
11
6.50118
21
-1.66378
0
LINE
8
BLACK
6
CONTINUOUS
10
6.50118
20
-1.66378
11
6.3752
21
-1.66378
0
CIRCLE
8
BLACK
10
6.71378
20
-1.38425
40
0.0393701
0
CIRCLE
8
BLACK
10
6.71378
20
-1.5811
40
0.0393701
0
CIRCLE
8
BLACK
10
6.79291
20
-1.03425
40
0.0629921
0
CIRCLE
8
BLACK
10
3.84291
20
-1.03425
40
0.0629921
0
CIRCLE
8
BLACK
10
3.84291
20
-5.58425
40
0.0629921
0
CIRCLE
8
BLACK
10
6.79291
20
-5.58425
40
0.0629921
0
CIRCLE
8
BLACK
10
4.39291
20
-2.98425
40
0.0334646
0
CIRCLE
8
BLACK
10
3.99291
20
-2.98425
40
0.0334646
0
CIRCLE
8
BLACK
10
4.19291
20
-2.98425
40
0.0787402
0
CIRCLE
8
BLACK
10
4.04291
20
-2.88425
40
0.0433071
0
CIRCLE
8
BLACK
10
4.29291
20
-2.78425
40
0.0433071
0
LINE
8
BLACK
6
CONTINUOUS
10
6.68929
20
-1.92189
11
6.73654
21
-1.92189
0
LINE
8
BLACK
6
CONTINUOUS
10
6.73654
20
-1.92189
11
6.73654
21
-1.88646
0
LINE
8
BLACK
6
CONTINUOUS
10
6.73654
20
-1.88646
11
6.68929
21
-1.88646
0
LINE
8
BLACK
6
CONTINUOUS
10
6.68929
20
-1.88646
11
6.68929
21
-1.92189
0
LINE
8
BLACK
6
CONTINUOUS
10
6.68929
20
-1.79197
11
6.73654
21
-1.79197
0
LINE
8
BLACK
6
CONTINUOUS
10
6.73654
20
-1.79197
11
6.73654
21
-1.75654
0
LINE
8
BLACK
6
CONTINUOUS
10
6.73654
20
-1.75654
11
6.68929
21
-1.75654
0
LINE
8
BLACK
6
CONTINUOUS
10
6.68929
20
-1.75654
11
6.68929
21
-1.79197
0
LINE
8
BLACK
6
CONTINUOUS
10
5.35235
20
-1.00982
11
5.28148
21
-1.00982
0
LINE
8
BLACK
6
CONTINUOUS
10
5.28148
20
-1.00982
11
5.28148
21
-1.08069
0
LINE
8
BLACK
6
CONTINUOUS
10
5.28148
20
-1.08069
11
5.35235
21
-1.08069
0
LINE
8
BLACK
6
CONTINUOUS
10
5.35235
20
-1.08069
11
5.35235
21
-1.00982
0
CIRCLE
8
BLACK
10
5.31691
20
-1.14525
40
0.0354331
0
LINE
8
BLACK
6
CONTINUOUS
10
5.17435
20
-1.00982
11
5.10348
21
-1.00982
0
LINE
8
BLACK
6
CONTINUOUS
10
5.10348
20
-1.00982
11
5.10348
21
-1.08069
0
LINE
8
BLACK
6
CONTINUOUS
10
5.10348
20
-1.08069
11
5.17435
21
-1.08069
0
LINE
8
BLACK
6
CONTINUOUS
10
5.17435
20
-1.08069
11
5.17435
21
-1.00982
0
CIRCLE
8
BLACK
10
5.13891
20
-1.14525
40
0.0354331
0
ARC
8
BLACK
10
5.56291
20
-1.12425
40
0.0275591
50
360
51
540
0
ARC
8
BLACK
10
5.56291
20
-1.12425
40
0.0275591
50
180
51
360
0
CIRCLE
8
BLACK
10
5.86291
20
-1.12425
40
0.0275591
0
ARC
8
BLACK
10
5.37791
20
-1.59425
40
0.0275591
50
180
51
360
0
ARC
8
BLACK
10
5.37791
20
-1.59425
40
0.0275591
50
0
51
180
0
CIRCLE
8
BLACK
10
5.07791
20
-1.59425
40
0.0275591
0
CIRCLE
8
BLACK
10
5.27791
20
-1.46425
40
0.0354331
0
LINE
8
BLACK
6
CONTINUOUS
10
5.14248
20
-1.42882
11
5.14248
21
-1.49969
0
LINE
8
BLACK
6
CONTINUOUS
10
5.14248
20
-1.49969
11
5.21335
21
-1.49969
0
LINE
8
BLACK
6
CONTINUOUS
10
5.21335
20
-1.49969
11
5.21335
21
-1.42882
0
LINE
8
BLACK
6
CONTINUOUS
10
5.21335
20
-1.42882
11
5.14248
21
-1.42882
0
ARC
8
BLACK
10
6.29291
20
-1.13425
40
0.0275591
50
360
51
540
0
ARC
8
BLACK
10
6.29291
20
-1.13425
40
0.0275591
50
180
51
360
0
CIRCLE
8
BLACK
10
6.59291
20
-1.13425
40
0.0275591
0
ARC
8
BLACK
10
6.29291
20
-1.02657
40
0.0275591
50
360
51
540
0
ARC
8
BLACK
10
6.29291
20
-1.02657
40
0.0275591
50
180
51
360
0
CIRCLE
8
BLACK
10
6.59291
20
-1.02657
40
0.0275591
0
CIRCLE
8
BLACK
10
5.14291
20
-3.73425
40
0.0334646
0
CIRCLE
8
BLACK
10
4.74291
20
-3.73425
40
0.0334646
0
CIRCLE
8
BLACK
10
4.94291
20
-3.73425
40
0.0787402
0
CIRCLE
8
BLACK
10
4.79291
20
-3.63425
40
0.0433071
0
CIRCLE
8
BLACK
10
5.04291
20
-3.53425
40
0.0433071
0
CIRCLE
8
BLACK
10
5.89291
20
-2.98425
40
0.0334646
0
CIRCLE
8
BLACK
10
5.49291
20
-2.98425
40
0.0334646
0
CIRCLE
8
BLACK
10
5.69291
20
-2.98425
40
0.0787402
0
CIRCLE
8
BLACK
10
5.54291
20
-2.88425
40
0.0433071
0
CIRCLE
8
BLACK
10
5.79291
20
-2.78425
40
0.0433071
0
CIRCLE
8
BLACK
10
5.89291
20
-3.73425
40
0.0334646
0
CIRCLE
8
BLACK
10
5.49291
20
-3.73425
40
0.0334646
0
CIRCLE
8
BLACK
10
5.69291
20
-3.73425
40
0.0787402
0
CIRCLE
8
BLACK
10
5.54291
20
-3.63425
40
0.0433071
0
CIRCLE
8
BLACK
10
5.79291
20
-3.53425
40
0.0433071
0
CIRCLE
8
BLACK
10
5.14291
20
-4.48425
40
0.0334646
0
CIRCLE
8
BLACK
10
4.74291
20
-4.48425
40
0.0334646
0
CIRCLE
8
BLACK
10
4.94291
20
-4.48425
40
0.0787402
0
CIRCLE
8
BLACK
10
4.79291
20
-4.38425
40
0.0433071
0
CIRCLE
8
BLACK
10
5.04291
20
-4.28425
40
0.0433071
0
CIRCLE
8
BLACK
10
5.89291
20
-4.48425
40
0.0334646
0
CIRCLE
8
BLACK
10
5.49291
20
-4.48425
40
0.0334646
0
CIRCLE
8
BLACK
10
5.69291
20
-4.48425
40
0.0787402
0
CIRCLE
8
BLACK
10
5.54291
20
-4.38425
40
0.0433071
0
CIRCLE
8
BLACK
10
5.79291
20
-4.28425
40
0.0433071
0
CIRCLE
8
BLACK
10
5.14291
20
-2.98425
40
0.0334646
0
CIRCLE
8
BLACK
10
4.74291
20
-2.98425
40
0.0334646
0
CIRCLE
8
BLACK
10
4.94291
20
-2.98425
40
0.0787402
0
CIRCLE
8
BLACK
10
4.79291
20
-2.88425
40
0.0433071
0
CIRCLE
8
BLACK
10
5.04291
20
-2.78425
40
0.0433071
0
CIRCLE
8
BLACK
10
5.89291
20
-2.23425
40
0.0334646
0
CIRCLE
8
BLACK
10
5.49291
20
-2.23425
40
0.0334646
0
CIRCLE
8
BLACK
10
5.69291
20
-2.23425
40
0.0787402
0
CIRCLE
8
BLACK
10
5.54291
20
-2.13425
40
0.0433071
0
CIRCLE
8
BLACK
10
5.79291
20
-2.03425
40
0.0433071
0
CIRCLE
8
BLACK
10
5.89291
20
-5.23425
40
0.0334646
0
CIRCLE
8
BLACK
10
5.49291
20
-5.23425
40
0.0334646
0
CIRCLE
8
BLACK
10
5.69291
20
-5.23425
40
0.0787402
0
CIRCLE
8
BLACK
10
5.54291
20
-5.13425
40
0.0433071
0
CIRCLE
8
BLACK
10
5.79291
20
-5.03425
40
0.0433071
0
LINE
8
BLACK
6
CONTINUOUS
10
5.62279
20
-3.50025
11
5.57554
21
-3.50025
0
LINE
8
BLACK
6
CONTINUOUS
10
5.57554
20
-3.50025
11
5.57554
21
-3.53568
0
LINE
8
BLACK
6
CONTINUOUS
10
5.57554
20
-3.53568
11
5.62279
21
-3.53568
0
LINE
8
BLACK
6
CONTINUOUS
10
5.62279
20
-3.53568
11
5.62279
21
-3.50025
0
LINE
8
BLACK
6
CONTINUOUS
10
5.62279
20
-3.37032
11
5.57554
21
-3.37032
0
LINE
8
BLACK
6
CONTINUOUS
10
5.57554
20
-3.37032
11
5.57554
21
-3.40576
0
LINE
8
BLACK
6
CONTINUOUS
10
5.57554
20
-3.40576
11
5.62279
21
-3.40576
0
LINE
8
BLACK
6
CONTINUOUS
10
5.62279
20
-3.40576
11
5.62279
21
-3.37032
0
LINE
8
BLACK
6
CONTINUOUS
10
5.62279
20
-4.25025
11
5.57554
21
-4.25025
0
LINE
8
BLACK
6
CONTINUOUS
10
5.57554
20
-4.25025
11
5.57554
21
-4.28568
0
LINE
8
BLACK
6
CONTINUOUS
10
5.57554
20
-4.28568
11
5.62279
21
-4.28568
0
LINE
8
BLACK
6
CONTINUOUS
10
5.62279
20
-4.28568
11
5.62279
21
-4.25025
0
LINE
8
BLACK
6
CONTINUOUS
10
5.62279
20
-4.12032
11
5.57554
21
-4.12032
0
LINE
8
BLACK
6
CONTINUOUS
10
5.57554
20
-4.12032
11
5.57554
21
-4.15576
0
LINE
8
BLACK
6
CONTINUOUS
10
5.57554
20
-4.15576
11
5.62279
21
-4.15576
0
LINE
8
BLACK
6
CONTINUOUS
10
5.62279
20
-4.15576
11
5.62279
21
-4.12032
0
LINE
8
BLACK
6
CONTINUOUS
10
5.62279
20
-5.00025
11
5.57554
21
-5.00025
0
LINE
8
BLACK
6
CONTINUOUS
10
5.57554
20
-5.00025
11
5.57554
21
-5.03568
0
LINE
8
BLACK
6
CONTINUOUS
10
5.57554
20
-5.03568
11
5.62279
21
-5.03568
0
LINE
8
BLACK
6
CONTINUOUS
10
5.62279
20
-5.03568
11
5.62279
21
-5.00025
0
LINE
8
BLACK
6
CONTINUOUS
10
5.62279
20
-4.87032
11
5.57554
21
-4.87032
0
LINE
8
BLACK
6
CONTINUOUS
10
5.57554
20
-4.87032
11
5.57554
21
-4.90576
0
LINE
8
BLACK
6
CONTINUOUS
10
5.57554
20
-4.90576
11
5.62279
21
-4.90576
0
LINE
8
BLACK
6
CONTINUOUS
10
5.62279
20
-4.90576
11
5.62279
21
-4.87032
0
LINE
8
BLACK
6
CONTINUOUS
10
6.32554
20
-2.37451
11
6.37279
21
-2.37451
0
LINE
8
BLACK
6
CONTINUOUS
10
6.37279
20
-2.37451
11
6.37279
21
-2.33907
0
LINE
8
BLACK
6
CONTINUOUS
10
6.37279
20
-2.33907
11
6.32554
21
-2.33907
0
LINE
8
BLACK
6
CONTINUOUS
10
6.32554
20
-2.33907
11
6.32554
21
-2.37451
0
LINE
8
BLACK
6
CONTINUOUS
10
6.32554
20
-2.50443
11
6.37279
21
-2.50443
0
LINE
8
BLACK
6
CONTINUOUS
10
6.37279
20
-2.50443
11
6.37279
21
-2.469
0
LINE
8
BLACK
6
CONTINUOUS
10
6.37279
20
-2.469
11
6.32554
21
-2.469
0
LINE
8
BLACK
6
CONTINUOUS
10
6.32554
20
-2.469
11
6.32554
21
-2.50443
0
LINE
8
BLACK
6
CONTINUOUS
10
4.82554
20
-2.37451
11
4.87279
21
-2.37451
0
LINE
8
BLACK
6
CONTINUOUS
10
4.87279
20
-2.37451
11
4.87279
21
-2.33907
0
LINE
8
BLACK
6
CONTINUOUS
10
4.87279
20
-2.33907
11
4.82554
21
-2.33907
0
LINE
8
BLACK
6
CONTINUOUS
10
4.82554
20
-2.33907
11
4.82554
21
-2.37451
0
LINE
8
BLACK
6
CONTINUOUS
10
4.82554
20
-2.50443
11
4.87279
21
-2.50443
0
LINE
8
BLACK
6
CONTINUOUS
10
4.87279
20
-2.50443
11
4.87279
21
-2.469
0
LINE
8
BLACK
6
CONTINUOUS
10
4.87279
20
-2.469
11
4.82554
21
-2.469
0
LINE
8
BLACK
6
CONTINUOUS
10
4.82554
20
-2.469
11
4.82554
21
-2.50443
0
LINE
8
BLACK
6
CONTINUOUS
10
4.12279
20
-3.50025
11
4.07554
21
-3.50025
0
LINE
8
BLACK
6
CONTINUOUS
10
4.07554
20
-3.50025
11
4.07554
21
-3.53568
0
LINE
8
BLACK
6
CONTINUOUS
10
4.07554
20
-3.53568
11
4.12279
21
-3.53568
0
LINE
8
BLACK
6
CONTINUOUS
10
4.12279
20
-3.53568
11
4.12279
21
-3.50025
0
LINE
8
BLACK
6
CONTINUOUS
10
4.12279
20
-3.37032
11
4.07554
21
-3.37032
0
LINE
8
BLACK
6
CONTINUOUS
10
4.07554
20
-3.37032
11
4.07554
21
-3.40576
0
LINE
8
BLACK
6
CONTINUOUS
10
4.07554
20
-3.40576
11
4.12279
21
-3.40576
0
LINE
8
BLACK
6
CONTINUOUS
10
4.12279
20
-3.40576
11
4.12279
21
-3.37032
0
LINE
8
BLACK
6
CONTINUOUS
10
4.87279
20
-2.75025
11
4.82554
21
-2.75025
0
LINE
8
BLACK
6
CONTINUOUS
10
4.82554
20
-2.75025
11
4.82554
21
-2.78568
0
LINE
8
BLACK
6
CONTINUOUS
10
4.82554
20
-2.78568
11
4.87279
21
-2.78568
0
LINE
8
BLACK
6
CONTINUOUS
10
4.87279
20
-2.78568
11
4.87279
21
-2.75025
0
LINE
8
BLACK
6
CONTINUOUS
10
4.87279
20
-2.62032
11
4.82554
21
-2.62032
0
LINE
8
BLACK
6
CONTINUOUS
10
4.82554
20
-2.62032
11
4.82554
21
-2.65576
0
LINE
8
BLACK
6
CONTINUOUS
10
4.82554
20
-2.65576
11
4.87279
21
-2.65576
0
LINE
8
BLACK
6
CONTINUOUS
10
4.87279
20
-2.65576
11
4.87279
21
-2.62032
0
LINE
8
BLACK
6
CONTINUOUS
10
4.49779
20
-5.00025
11
4.45054
21
-5.00025
0
LINE
8
BLACK
6
CONTINUOUS
10
4.45054
20
-5.00025
11
4.45054
21
-5.03568
0
LINE
8
BLACK
6
CONTINUOUS
10
4.45054
20
-5.03568
11
4.49779
21
-5.03568
0
LINE
8
BLACK
6
CONTINUOUS
10
4.49779
20
-5.03568
11
4.49779
21
-5.00025
0
LINE
8
BLACK
6
CONTINUOUS
10
4.49779
20
-4.87032
11
4.45054
21
-4.87032
0
LINE
8
BLACK
6
CONTINUOUS
10
4.45054
20
-4.87032
11
4.45054
21
-4.90576
0
LINE
8
BLACK
6
CONTINUOUS
10
4.45054
20
-4.90576
11
4.49779
21
-4.90576
0
LINE
8
BLACK
6
CONTINUOUS
10
4.49779
20
-4.90576
11
4.49779
21
-4.87032
0
LINE
8
BLACK
6
CONTINUOUS
10
6.09154
20
-5.00025
11
6.04429
21
-5.00025
0
LINE
8
BLACK
6
CONTINUOUS
10
6.04429
20
-5.00025
11
6.04429
21
-5.03568
0
LINE
8
BLACK
6
CONTINUOUS
10
6.04429
20
-5.03568
11
6.09154
21
-5.03568
0
LINE
8
BLACK
6
CONTINUOUS
10
6.09154
20
-5.03568
11
6.09154
21
-5.00025
0
LINE
8
BLACK
6
CONTINUOUS
10
6.09154
20
-4.87032
11
6.04429
21
-4.87032
0
LINE
8
BLACK
6
CONTINUOUS
10
6.04429
20
-4.87032
11
6.04429
21
-4.90576
0
LINE
8
BLACK
6
CONTINUOUS
10
6.04429
20
-4.90576
11
6.09154
21
-4.90576
0
LINE
8
BLACK
6
CONTINUOUS
10
6.09154
20
-4.90576
11
6.09154
21
-4.87032
0
CIRCLE
8
BLACK
10
6.16732
20
-2.89075
40
0.0600394
0
CIRCLE
8
BLACK
10
6.16732
20
-3.82776
40
0.0600394
0
CIRCLE
8
BLACK
10
6.76732
20
-3.82776
40
0.0787402
0
CIRCLE
8
BLACK
10
6.76732
20
-2.89075
40
0.0787402
0
CIRCLE
8
BLACK
10
6.64291
20
-3.35925
40
0.0334646
0
CIRCLE
8
BLACK
10
6.24291
20
-3.35925
40
0.0334646
0
CIRCLE
8
BLACK
10
6.44291
20
-3.35925
40
0.0787402
0
CIRCLE
8
BLACK
10
6.29291
20
-3.25925
40
0.0433071
0
CIRCLE
8
BLACK
10
6.54291
20
-3.15925
40
0.0433071
0
CIRCLE
8
BLACK
10
4.39291
20
-3.73425
40
0.0334646
0
CIRCLE
8
BLACK
10
3.99291
20
-3.73425
40
0.0334646
0
CIRCLE
8
BLACK
10
4.19291
20
-3.73425
40
0.0787402
0
CIRCLE
8
BLACK
10
4.04291
20
-3.63425
40
0.0433071
0
CIRCLE
8
BLACK
10
4.29291
20
-3.53425
40
0.0433071
0
CIRCLE
8
BLACK
10
4.39291
20
-4.48425
40
0.0334646
0
CIRCLE
8
BLACK
10
3.99291
20
-4.48425
40
0.0334646
0
CIRCLE
8
BLACK
10
4.19291
20
-4.48425
40
0.0787402
0
CIRCLE
8
BLACK
10
4.04291
20
-4.38425
40
0.0433071
0
CIRCLE
8
BLACK
10
4.29291
20
-4.28425
40
0.0433071
0
LINE
8
BLACK
6
CONTINUOUS
10
4.12279
20
-4.25025
11
4.07554
21
-4.25025
0
LINE
8
BLACK
6
CONTINUOUS
10
4.07554
20
-4.25025
11
4.07554
21
-4.28568
0
LINE
8
BLACK
6
CONTINUOUS
10
4.07554
20
-4.28568
11
4.12279
21
-4.28568
0
LINE
8
BLACK
6
CONTINUOUS
10
4.12279
20
-4.28568
11
4.12279
21
-4.25025
0
LINE
8
BLACK
6
CONTINUOUS
10
4.12279
20
-4.12032
11
4.07554
21
-4.12032
0
LINE
8
BLACK
6
CONTINUOUS
10
4.07554
20
-4.12032
11
4.07554
21
-4.15576
0
LINE
8
BLACK
6
CONTINUOUS
10
4.07554
20
-4.15576
11
4.12279
21
-4.15576
0
LINE
8
BLACK
6
CONTINUOUS
10
4.12279
20
-4.15576
11
4.12279
21
-4.12032
0
CIRCLE
8
BLACK
10
6.16732
20
-4.39075
40
0.0600394
0
CIRCLE
8
BLACK
10
6.16732
20
-5.32776
40
0.0600394
0
CIRCLE
8
BLACK
10
6.76732
20
-5.32776
40
0.0787402
0
CIRCLE
8
BLACK
10
6.76732
20
-4.39075
40
0.0787402
0
CIRCLE
8
BLACK
10
6.64291
20
-4.85925
40
0.0334646
0
CIRCLE
8
BLACK
10
6.24291
20
-4.85925
40
0.0334646
0
CIRCLE
8
BLACK
10
6.44291
20
-4.85925
40
0.0787402
0
CIRCLE
8
BLACK
10
6.29291
20
-4.75925
40
0.0433071
0
CIRCLE
8
BLACK
10
6.54291
20
-4.65925
40
0.0433071
0
LINE
8
BLACK
6
CONTINUOUS
10
6.09154
20
-3.50025
11
6.04429
21
-3.50025
0
LINE
8
BLACK
6
CONTINUOUS
10
6.04429
20
-3.50025
11
6.04429
21
-3.53568
0
LINE
8
BLACK
6
CONTINUOUS
10
6.04429
20
-3.53568
11
6.09154
21
-3.53568
0
LINE
8
BLACK
6
CONTINUOUS
10
6.09154
20
-3.53568
11
6.09154
21
-3.50025
0
LINE
8
BLACK
6
CONTINUOUS
10
6.09154
20
-3.37032
11
6.04429
21
-3.37032
0
LINE
8
BLACK
6
CONTINUOUS
10
6.04429
20
-3.37032
11
6.04429
21
-3.40576
0
LINE
8
BLACK
6
CONTINUOUS
10
6.04429
20
-3.40576
11
6.09154
21
-3.40576
0
LINE
8
BLACK
6
CONTINUOUS
10
6.09154
20
-3.40576
11
6.09154
21
-3.37032
0
LINE
8
BLACK
6
CONTINUOUS
10
4.12279
20
-2.75025
11
4.07554
21
-2.75025
0
LINE
8
BLACK
6
CONTINUOUS
10
4.07554
20
-2.75025
11
4.07554
21
-2.78568
0
LINE
8
BLACK
6
CONTINUOUS
10
4.07554
20
-2.78568
11
4.12279
21
-2.78568
0
LINE
8
BLACK
6
CONTINUOUS
10
4.12279
20
-2.78568
11
4.12279
21
-2.75025
0
LINE
8
BLACK
6
CONTINUOUS
10
4.12279
20
-2.62032
11
4.07554
21
-2.62032
0
LINE
8
BLACK
6
CONTINUOUS
10
4.07554
20
-2.62032
11
4.07554
21
-2.65576
0
LINE
8
BLACK
6
CONTINUOUS
10
4.07554
20
-2.65576
11
4.12279
21
-2.65576
0
LINE
8
BLACK
6
CONTINUOUS
10
4.12279
20
-2.65576
11
4.12279
21
-2.62032
0
CIRCLE
8
BLACK
10
5.03642
20
-4.95866
40
0.0600394
0
CIRCLE
8
BLACK
10
4.09941
20
-4.95866
40
0.0600394
0
CIRCLE
8
BLACK
10
4.09941
20
-5.55866
40
0.0787402
0
CIRCLE
8
BLACK
10
5.03642
20
-5.55866
40
0.0787402
0
CIRCLE
8
BLACK
10
4.76791
20
-5.23425
40
0.0334646
0
CIRCLE
8
BLACK
10
4.36791
20
-5.23425
40
0.0334646
0
CIRCLE
8
BLACK
10
4.56791
20
-5.23425
40
0.0787402
0
CIRCLE
8
BLACK
10
4.41791
20
-5.13425
40
0.0433071
0
CIRCLE
8
BLACK
10
4.66791
20
-5.03425
40
0.0433071
0
LINE
8
BLACK
6
CONTINUOUS
10
5.57554
20
-2.37451
11
5.62279
21
-2.37451
0
LINE
8
BLACK
6
CONTINUOUS
10
5.62279
20
-2.37451
11
5.62279
21
-2.33907
0
LINE
8
BLACK
6
CONTINUOUS
10
5.62279
20
-2.33907
11
5.57554
21
-2.33907
0
LINE
8
BLACK
6
CONTINUOUS
10
5.57554
20
-2.33907
11
5.57554
21
-2.37451
0
LINE
8
BLACK
6
CONTINUOUS
10
5.57554
20
-2.50443
11
5.62279
21
-2.50443
0
LINE
8
BLACK
6
CONTINUOUS
10
5.62279
20
-2.50443
11
5.62279
21
-2.469
0
LINE
8
BLACK
6
CONTINUOUS
10
5.62279
20
-2.469
11
5.57554
21
-2.469
0
LINE
8
BLACK
6
CONTINUOUS
10
5.57554
20
-2.469
11
5.57554
21
-2.50443
0
LINE
8
BLACK
6
CONTINUOUS
10
5.62279
20
-2.75025
11
5.57554
21
-2.75025
0
LINE
8
BLACK
6
CONTINUOUS
10
5.57554
20
-2.75025
11
5.57554
21
-2.78568
0
LINE
8
BLACK
6
CONTINUOUS
10
5.57554
20
-2.78568
11
5.62279
21
-2.78568
0
LINE
8
BLACK
6
CONTINUOUS
10
5.62279
20
-2.78568
11
5.62279
21
-2.75025
0
LINE
8
BLACK
6
CONTINUOUS
10
5.62279
20
-2.62032
11
5.57554
21
-2.62032
0
LINE
8
BLACK
6
CONTINUOUS
10
5.57554
20
-2.62032
11
5.57554
21
-2.65576
0
LINE
8
BLACK
6
CONTINUOUS
10
5.57554
20
-2.65576
11
5.62279
21
-2.65576
0
LINE
8
BLACK
6
CONTINUOUS
10
5.62279
20
-2.65576
11
5.62279
21
-2.62032
0
LINE
8
BLACK
6
CONTINUOUS
10
4.87279
20
-3.50025
11
4.82554
21
-3.50025
0
LINE
8
BLACK
6
CONTINUOUS
10
4.82554
20
-3.50025
11
4.82554
21
-3.53568
0
LINE
8
BLACK
6
CONTINUOUS
10
4.82554
20
-3.53568
11
4.87279
21
-3.53568
0
LINE
8
BLACK
6
CONTINUOUS
10
4.87279
20
-3.53568
11
4.87279
21
-3.50025
0
LINE
8
BLACK
6
CONTINUOUS
10
4.87279
20
-3.37032
11
4.82554
21
-3.37032
0
LINE
8
BLACK
6
CONTINUOUS
10
4.82554
20
-3.37032
11
4.82554
21
-3.40576
0
LINE
8
BLACK
6
CONTINUOUS
10
4.82554
20
-3.40576
11
4.87279
21
-3.40576
0
LINE
8
BLACK
6
CONTINUOUS
10
4.87279
20
-3.40576
11
4.87279
21
-3.37032
0
LINE
8
BLACK
6
CONTINUOUS
10
4.87279
20
-4.25025
11
4.82554
21
-4.25025
0
LINE
8
BLACK
6
CONTINUOUS
10
4.82554
20
-4.25025
11
4.82554
21
-4.28568
0
LINE
8
BLACK
6
CONTINUOUS
10
4.82554
20
-4.28568
11
4.87279
21
-4.28568
0
LINE
8
BLACK
6
CONTINUOUS
10
4.87279
20
-4.28568
11
4.87279
21
-4.25025
0
LINE
8
BLACK
6
CONTINUOUS
10
4.87279
20
-4.12032
11
4.82554
21
-4.12032
0
LINE
8
BLACK
6
CONTINUOUS
10
4.82554
20
-4.12032
11
4.82554
21
-4.15576
0
LINE
8
BLACK
6
CONTINUOUS
10
4.82554
20
-4.15576
11
4.87279
21
-4.15576
0
LINE
8
BLACK
6
CONTINUOUS
10
4.87279
20
-4.15576
11
4.87279
21
-4.12032
0
CIRCLE
8
BLACK
10
6.64291
20
-2.23425
40
0.0334646
0
CIRCLE
8
BLACK
10
6.24291
20
-2.23425
40
0.0334646
0
CIRCLE
8
BLACK
10
6.44291
20
-2.23425
40
0.0787402
0
CIRCLE
8
BLACK
10
6.29291
20
-2.13425
40
0.0433071
0
CIRCLE
8
BLACK
10
6.54291
20
-2.03425
40
0.0433071
0
LINE
8
BLACK
6
CONTINUOUS
10
4.07554
20
-2.37451
11
4.12279
21
-2.37451
0
LINE
8
BLACK
6
CONTINUOUS
10
4.12279
20
-2.37451
11
4.12279
21
-2.33907
0
LINE
8
BLACK
6
CONTINUOUS
10
4.12279
20
-2.33907
11
4.07554
21
-2.33907
0
LINE
8
BLACK
6
CONTINUOUS
10
4.07554
20
-2.33907
11
4.07554
21
-2.37451
0
LINE
8
BLACK
6
CONTINUOUS
10
4.07554
20
-2.50443
11
4.12279
21
-2.50443
0
LINE
8
BLACK
6
CONTINUOUS
10
4.12279
20
-2.50443
11
4.12279
21
-2.469
0
LINE
8
BLACK
6
CONTINUOUS
10
4.12279
20
-2.469
11
4.07554
21
-2.469
0
LINE
8
BLACK
6
CONTINUOUS
10
4.07554
20
-2.469
11
4.07554
21
-2.50443
  0
ENDSEC
  0
EOF
