  0
SECTION
  2
HEADER
  9
$ANGBASE
  50
0.0
  9
$ANGDIR
  70
1
  9
$MEASUREMENT
  70
0
  0
ENDSEC
  0
SECTION
  2
TABLES
  0
TABLE
  2
LTYPE
  70
4
  0
LTYPE
  5
40F
  2
CONTINUOUS
  70
0
  3
Solid line
  72
65
  73
0
  40
0.0
  0
LTYPE
  5
410
  2
DASHDOT
 70
0
  3
Dash Dot ____ _ ____ _
 72
65
 73
4
 40
2.0
 49
1.25
 49
-0.25
 49
0.25
 49
-0.25
  0
LTYPE
  5
411
  2
DASHED
 70
0
  3
Dashed __ __ __ __ __
 72
65
 73
2
 40
0.75
 49
0.5
 49
-0.25
  0
LTYPE
  5
43B
  2
DOTTED
 70
0
  3
Dotted .  .  .  .
 72
65
 73
2
 40
0.2
 49
0.0
 49
-0.2
  0
ENDTAB
  0
TABLE
  2
STYLE
  70
4
  0
STYLE
  2
KICAD
  70
0
  40
0
  41
1
  42
1
  50
0
  71
0
  3
isocp.shx
  0
STYLE
  2
KICADB
  70
0
  40
0
  41
1
  42
1
  50
0
  71
0
  3
isocp.shx
  0
STYLE
  2
KICADI
  70
0
  40
0
  41
1
  42
1
  50
15
  71
0
  3
isocp.shx
  0
STYLE
  2
KICADBI
  70
0
  40
0
  41
1
  42
1
  50
15
  71
0
  3
isocp.shx
  0
ENDTAB
  0
TABLE
  2
LAYER
  70
1
  0
LAYER
  2
BLACK
  70
0
  62
7
  6
CONTINUOUS
  0
ENDTAB
  0
ENDSEC
  0
SECTION
  2
ENTITIES
0
LINE
8
BLACK
6
CONTINUOUS
10
4.49779
20
-5.03568
11
4.45054
21
-5.03568
0
LINE
8
BLACK
6
CONTINUOUS
10
4.45054
20
-5.03568
11
4.45054
21
-5.00025
0
LINE
8
BLACK
6
CONTINUOUS
10
4.45054
20
-5.00025
11
4.49779
21
-5.00025
0
LINE
8
BLACK
6
CONTINUOUS
10
4.49779
20
-5.00025
11
4.49779
21
-5.03568
0
LINE
8
BLACK
6
CONTINUOUS
10
6.09154
20
-5.03568
11
6.04429
21
-5.03568
0
LINE
8
BLACK
6
CONTINUOUS
10
6.04429
20
-5.03568
11
6.04429
21
-5.00025
0
LINE
8
BLACK
6
CONTINUOUS
10
6.04429
20
-5.00025
11
6.09154
21
-5.00025
0
LINE
8
BLACK
6
CONTINUOUS
10
6.09154
20
-5.00025
11
6.09154
21
-5.03568
0
LINE
8
BLACK
6
CONTINUOUS
10
5.62279
20
-5.03568
11
5.57554
21
-5.03568
0
LINE
8
BLACK
6
CONTINUOUS
10
5.57554
20
-5.03568
11
5.57554
21
-5.00025
0
LINE
8
BLACK
6
CONTINUOUS
10
5.57554
20
-5.00025
11
5.62279
21
-5.00025
0
LINE
8
BLACK
6
CONTINUOUS
10
5.62279
20
-5.00025
11
5.62279
21
-5.03568
0
LINE
8
BLACK
6
CONTINUOUS
10
4.49779
20
-4.90576
11
4.45054
21
-4.90576
0
LINE
8
BLACK
6
CONTINUOUS
10
4.45054
20
-4.90576
11
4.45054
21
-4.87032
0
LINE
8
BLACK
6
CONTINUOUS
10
4.45054
20
-4.87032
11
4.49779
21
-4.87032
0
LINE
8
BLACK
6
CONTINUOUS
10
4.49779
20
-4.87032
11
4.49779
21
-4.90576
0
LINE
8
BLACK
6
CONTINUOUS
10
6.09154
20
-4.90576
11
6.04429
21
-4.90576
0
LINE
8
BLACK
6
CONTINUOUS
10
6.04429
20
-4.90576
11
6.04429
21
-4.87032
0
LINE
8
BLACK
6
CONTINUOUS
10
6.04429
20
-4.87032
11
6.09154
21
-4.87032
0
LINE
8
BLACK
6
CONTINUOUS
10
6.09154
20
-4.87032
11
6.09154
21
-4.90576
0
LINE
8
BLACK
6
CONTINUOUS
10
5.62279
20
-4.90576
11
5.57554
21
-4.90576
0
LINE
8
BLACK
6
CONTINUOUS
10
5.57554
20
-4.90576
11
5.57554
21
-4.87032
0
LINE
8
BLACK
6
CONTINUOUS
10
5.57554
20
-4.87032
11
5.62279
21
-4.87032
0
LINE
8
BLACK
6
CONTINUOUS
10
5.62279
20
-4.87032
11
5.62279
21
-4.90576
0
LINE
8
BLACK
6
CONTINUOUS
10
5.62279
20
-4.28568
11
5.57554
21
-4.28568
0
LINE
8
BLACK
6
CONTINUOUS
10
5.57554
20
-4.28568
11
5.57554
21
-4.25025
0
LINE
8
BLACK
6
CONTINUOUS
10
5.57554
20
-4.25025
11
5.62279
21
-4.25025
0
LINE
8
BLACK
6
CONTINUOUS
10
5.62279
20
-4.25025
11
5.62279
21
-4.28568
0
LINE
8
BLACK
6
CONTINUOUS
10
4.87279
20
-4.28568
11
4.82554
21
-4.28568
0
LINE
8
BLACK
6
CONTINUOUS
10
4.82554
20
-4.28568
11
4.82554
21
-4.25025
0
LINE
8
BLACK
6
CONTINUOUS
10
4.82554
20
-4.25025
11
4.87279
21
-4.25025
0
LINE
8
BLACK
6
CONTINUOUS
10
4.87279
20
-4.25025
11
4.87279
21
-4.28568
0
LINE
8
BLACK
6
CONTINUOUS
10
4.12279
20
-4.28568
11
4.07554
21
-4.28568
0
LINE
8
BLACK
6
CONTINUOUS
10
4.07554
20
-4.28568
11
4.07554
21
-4.25025
0
LINE
8
BLACK
6
CONTINUOUS
10
4.07554
20
-4.25025
11
4.12279
21
-4.25025
0
LINE
8
BLACK
6
CONTINUOUS
10
4.12279
20
-4.25025
11
4.12279
21
-4.28568
0
LINE
8
BLACK
6
CONTINUOUS
10
4.87279
20
-4.15576
11
4.82554
21
-4.15576
0
LINE
8
BLACK
6
CONTINUOUS
10
4.82554
20
-4.15576
11
4.82554
21
-4.12032
0
LINE
8
BLACK
6
CONTINUOUS
10
4.82554
20
-4.12032
11
4.87279
21
-4.12032
0
LINE
8
BLACK
6
CONTINUOUS
10
4.87279
20
-4.12032
11
4.87279
21
-4.15576
0
LINE
8
BLACK
6
CONTINUOUS
10
4.12279
20
-4.15576
11
4.07554
21
-4.15576
0
LINE
8
BLACK
6
CONTINUOUS
10
4.07554
20
-4.15576
11
4.07554
21
-4.12032
0
LINE
8
BLACK
6
CONTINUOUS
10
4.07554
20
-4.12032
11
4.12279
21
-4.12032
0
LINE
8
BLACK
6
CONTINUOUS
10
4.12279
20
-4.12032
11
4.12279
21
-4.15576
0
LINE
8
BLACK
6
CONTINUOUS
10
5.62279
20
-4.15576
11
5.57554
21
-4.15576
0
LINE
8
BLACK
6
CONTINUOUS
10
5.57554
20
-4.15576
11
5.57554
21
-4.12032
0
LINE
8
BLACK
6
CONTINUOUS
10
5.57554
20
-4.12032
11
5.62279
21
-4.12032
0
LINE
8
BLACK
6
CONTINUOUS
10
5.62279
20
-4.12032
11
5.62279
21
-4.15576
0
LINE
8
BLACK
6
CONTINUOUS
10
4.87279
20
-3.53568
11
4.82554
21
-3.53568
0
LINE
8
BLACK
6
CONTINUOUS
10
4.82554
20
-3.53568
11
4.82554
21
-3.50025
0
LINE
8
BLACK
6
CONTINUOUS
10
4.82554
20
-3.50025
11
4.87279
21
-3.50025
0
LINE
8
BLACK
6
CONTINUOUS
10
4.87279
20
-3.50025
11
4.87279
21
-3.53568
0
LINE
8
BLACK
6
CONTINUOUS
10
4.12279
20
-3.53568
11
4.07554
21
-3.53568
0
LINE
8
BLACK
6
CONTINUOUS
10
4.07554
20
-3.53568
11
4.07554
21
-3.50025
0
LINE
8
BLACK
6
CONTINUOUS
10
4.07554
20
-3.50025
11
4.12279
21
-3.50025
0
LINE
8
BLACK
6
CONTINUOUS
10
4.12279
20
-3.50025
11
4.12279
21
-3.53568
0
LINE
8
BLACK
6
CONTINUOUS
10
6.09154
20
-3.53568
11
6.04429
21
-3.53568
0
LINE
8
BLACK
6
CONTINUOUS
10
6.04429
20
-3.53568
11
6.04429
21
-3.50025
0
LINE
8
BLACK
6
CONTINUOUS
10
6.04429
20
-3.50025
11
6.09154
21
-3.50025
0
LINE
8
BLACK
6
CONTINUOUS
10
6.09154
20
-3.50025
11
6.09154
21
-3.53568
0
LINE
8
BLACK
6
CONTINUOUS
10
5.62279
20
-3.53568
11
5.57554
21
-3.53568
0
LINE
8
BLACK
6
CONTINUOUS
10
5.57554
20
-3.53568
11
5.57554
21
-3.50025
0
LINE
8
BLACK
6
CONTINUOUS
10
5.57554
20
-3.50025
11
5.62279
21
-3.50025
0
LINE
8
BLACK
6
CONTINUOUS
10
5.62279
20
-3.50025
11
5.62279
21
-3.53568
0
LINE
8
BLACK
6
CONTINUOUS
10
6.09154
20
-3.40576
11
6.04429
21
-3.40576
0
LINE
8
BLACK
6
CONTINUOUS
10
6.04429
20
-3.40576
11
6.04429
21
-3.37032
0
LINE
8
BLACK
6
CONTINUOUS
10
6.04429
20
-3.37032
11
6.09154
21
-3.37032
0
LINE
8
BLACK
6
CONTINUOUS
10
6.09154
20
-3.37032
11
6.09154
21
-3.40576
0
LINE
8
BLACK
6
CONTINUOUS
10
4.12279
20
-3.40576
11
4.07554
21
-3.40576
0
LINE
8
BLACK
6
CONTINUOUS
10
4.07554
20
-3.40576
11
4.07554
21
-3.37032
0
LINE
8
BLACK
6
CONTINUOUS
10
4.07554
20
-3.37032
11
4.12279
21
-3.37032
0
LINE
8
BLACK
6
CONTINUOUS
10
4.12279
20
-3.37032
11
4.12279
21
-3.40576
0
LINE
8
BLACK
6
CONTINUOUS
10
4.87279
20
-3.40576
11
4.82554
21
-3.40576
0
LINE
8
BLACK
6
CONTINUOUS
10
4.82554
20
-3.40576
11
4.82554
21
-3.37032
0
LINE
8
BLACK
6
CONTINUOUS
10
4.82554
20
-3.37032
11
4.87279
21
-3.37032
0
LINE
8
BLACK
6
CONTINUOUS
10
4.87279
20
-3.37032
11
4.87279
21
-3.40576
0
LINE
8
BLACK
6
CONTINUOUS
10
5.62279
20
-3.40576
11
5.57554
21
-3.40576
0
LINE
8
BLACK
6
CONTINUOUS
10
5.57554
20
-3.40576
11
5.57554
21
-3.37032
0
LINE
8
BLACK
6
CONTINUOUS
10
5.57554
20
-3.37032
11
5.62279
21
-3.37032
0
LINE
8
BLACK
6
CONTINUOUS
10
5.62279
20
-3.37032
11
5.62279
21
-3.40576
0
LINE
8
BLACK
6
CONTINUOUS
10
4.87279
20
-2.78568
11
4.82554
21
-2.78568
0
LINE
8
BLACK
6
CONTINUOUS
10
4.82554
20
-2.78568
11
4.82554
21
-2.75025
0
LINE
8
BLACK
6
CONTINUOUS
10
4.82554
20
-2.75025
11
4.87279
21
-2.75025
0
LINE
8
BLACK
6
CONTINUOUS
10
4.87279
20
-2.75025
11
4.87279
21
-2.78568
0
LINE
8
BLACK
6
CONTINUOUS
10
4.12279
20
-2.78568
11
4.07554
21
-2.78568
0
LINE
8
BLACK
6
CONTINUOUS
10
4.07554
20
-2.78568
11
4.07554
21
-2.75025
0
LINE
8
BLACK
6
CONTINUOUS
10
4.07554
20
-2.75025
11
4.12279
21
-2.75025
0
LINE
8
BLACK
6
CONTINUOUS
10
4.12279
20
-2.75025
11
4.12279
21
-2.78568
0
LINE
8
BLACK
6
CONTINUOUS
10
5.62279
20
-2.78568
11
5.57554
21
-2.78568
0
LINE
8
BLACK
6
CONTINUOUS
10
5.57554
20
-2.78568
11
5.57554
21
-2.75025
0
LINE
8
BLACK
6
CONTINUOUS
10
5.57554
20
-2.75025
11
5.62279
21
-2.75025
0
LINE
8
BLACK
6
CONTINUOUS
10
5.62279
20
-2.75025
11
5.62279
21
-2.78568
0
LINE
8
BLACK
6
CONTINUOUS
10
4.87279
20
-2.65576
11
4.82554
21
-2.65576
0
LINE
8
BLACK
6
CONTINUOUS
10
4.82554
20
-2.65576
11
4.82554
21
-2.62032
0
LINE
8
BLACK
6
CONTINUOUS
10
4.82554
20
-2.62032
11
4.87279
21
-2.62032
0
LINE
8
BLACK
6
CONTINUOUS
10
4.87279
20
-2.62032
11
4.87279
21
-2.65576
0
LINE
8
BLACK
6
CONTINUOUS
10
5.62279
20
-2.65576
11
5.57554
21
-2.65576
0
LINE
8
BLACK
6
CONTINUOUS
10
5.57554
20
-2.65576
11
5.57554
21
-2.62032
0
LINE
8
BLACK
6
CONTINUOUS
10
5.57554
20
-2.62032
11
5.62279
21
-2.62032
0
LINE
8
BLACK
6
CONTINUOUS
10
5.62279
20
-2.62032
11
5.62279
21
-2.65576
0
LINE
8
BLACK
6
CONTINUOUS
10
4.12279
20
-2.65576
11
4.07554
21
-2.65576
0
LINE
8
BLACK
6
CONTINUOUS
10
4.07554
20
-2.65576
11
4.07554
21
-2.62032
0
LINE
8
BLACK
6
CONTINUOUS
10
4.07554
20
-2.62032
11
4.12279
21
-2.62032
0
LINE
8
BLACK
6
CONTINUOUS
10
4.12279
20
-2.62032
11
4.12279
21
-2.65576
0
LINE
8
BLACK
6
CONTINUOUS
10
4.12279
20
-2.50443
11
4.07554
21
-2.50443
0
LINE
8
BLACK
6
CONTINUOUS
10
4.07554
20
-2.50443
11
4.07554
21
-2.469
0
LINE
8
BLACK
6
CONTINUOUS
10
4.07554
20
-2.469
11
4.12279
21
-2.469
0
LINE
8
BLACK
6
CONTINUOUS
10
4.12279
20
-2.469
11
4.12279
21
-2.50443
0
LINE
8
BLACK
6
CONTINUOUS
10
5.62279
20
-2.50443
11
5.57554
21
-2.50443
0
LINE
8
BLACK
6
CONTINUOUS
10
5.57554
20
-2.50443
11
5.57554
21
-2.469
0
LINE
8
BLACK
6
CONTINUOUS
10
5.57554
20
-2.469
11
5.62279
21
-2.469
0
LINE
8
BLACK
6
CONTINUOUS
10
5.62279
20
-2.469
11
5.62279
21
-2.50443
0
LINE
8
BLACK
6
CONTINUOUS
10
4.87279
20
-2.50443
11
4.82554
21
-2.50443
0
LINE
8
BLACK
6
CONTINUOUS
10
4.82554
20
-2.50443
11
4.82554
21
-2.469
0
LINE
8
BLACK
6
CONTINUOUS
10
4.82554
20
-2.469
11
4.87279
21
-2.469
0
LINE
8
BLACK
6
CONTINUOUS
10
4.87279
20
-2.469
11
4.87279
21
-2.50443
0
LINE
8
BLACK
6
CONTINUOUS
10
6.37279
20
-2.50443
11
6.32554
21
-2.50443
0
LINE
8
BLACK
6
CONTINUOUS
10
6.32554
20
-2.50443
11
6.32554
21
-2.469
0
LINE
8
BLACK
6
CONTINUOUS
10
6.32554
20
-2.469
11
6.37279
21
-2.469
0
LINE
8
BLACK
6
CONTINUOUS
10
6.37279
20
-2.469
11
6.37279
21
-2.50443
0
LINE
8
BLACK
6
CONTINUOUS
10
5.62279
20
-2.37451
11
5.57554
21
-2.37451
0
LINE
8
BLACK
6
CONTINUOUS
10
5.57554
20
-2.37451
11
5.57554
21
-2.33907
0
LINE
8
BLACK
6
CONTINUOUS
10
5.57554
20
-2.33907
11
5.62279
21
-2.33907
0
LINE
8
BLACK
6
CONTINUOUS
10
5.62279
20
-2.33907
11
5.62279
21
-2.37451
0
LINE
8
BLACK
6
CONTINUOUS
10
4.87279
20
-2.37451
11
4.82554
21
-2.37451
0
LINE
8
BLACK
6
CONTINUOUS
10
4.82554
20
-2.37451
11
4.82554
21
-2.33907
0
LINE
8
BLACK
6
CONTINUOUS
10
4.82554
20
-2.33907
11
4.87279
21
-2.33907
0
LINE
8
BLACK
6
CONTINUOUS
10
4.87279
20
-2.33907
11
4.87279
21
-2.37451
0
LINE
8
BLACK
6
CONTINUOUS
10
6.37279
20
-2.37451
11
6.32554
21
-2.37451
0
LINE
8
BLACK
6
CONTINUOUS
10
6.32554
20
-2.37451
11
6.32554
21
-2.33907
0
LINE
8
BLACK
6
CONTINUOUS
10
6.32554
20
-2.33907
11
6.37279
21
-2.33907
0
LINE
8
BLACK
6
CONTINUOUS
10
6.37279
20
-2.33907
11
6.37279
21
-2.37451
0
LINE
8
BLACK
6
CONTINUOUS
10
4.12279
20
-2.37451
11
4.07554
21
-2.37451
0
LINE
8
BLACK
6
CONTINUOUS
10
4.07554
20
-2.37451
11
4.07554
21
-2.33907
0
LINE
8
BLACK
6
CONTINUOUS
10
4.07554
20
-2.33907
11
4.12279
21
-2.33907
0
LINE
8
BLACK
6
CONTINUOUS
10
4.12279
20
-2.33907
11
4.12279
21
-2.37451
0
LINE
8
BLACK
6
CONTINUOUS
10
6.73654
20
-1.92189
11
6.68929
21
-1.92189
0
LINE
8
BLACK
6
CONTINUOUS
10
6.68929
20
-1.92189
11
6.68929
21
-1.88646
0
LINE
8
BLACK
6
CONTINUOUS
10
6.68929
20
-1.88646
11
6.73654
21
-1.88646
0
LINE
8
BLACK
6
CONTINUOUS
10
6.73654
20
-1.88646
11
6.73654
21
-1.92189
0
LINE
8
BLACK
6
CONTINUOUS
10
6.73654
20
-1.79197
11
6.68929
21
-1.79197
0
LINE
8
BLACK
6
CONTINUOUS
10
6.68929
20
-1.79197
11
6.68929
21
-1.75654
0
LINE
8
BLACK
6
CONTINUOUS
10
6.68929
20
-1.75654
11
6.73654
21
-1.75654
0
LINE
8
BLACK
6
CONTINUOUS
10
6.73654
20
-1.75654
11
6.73654
21
-1.79197
  0
ENDSEC
  0
EOF
