%TF.GenerationSoftware,KiCad,Pcbnew,5.1.9-73d0e3b20d~88~ubuntu20.04.1*%
%TF.CreationDate,2021-03-20T19:20:58-05:00*%
%TF.ProjectId,KeypadMacropad1,4b657970-6164-44d6-9163-726f70616431,rev?*%
%TF.SameCoordinates,Original*%
%TF.FileFunction,Soldermask,Bot*%
%TF.FilePolarity,Negative*%
%FSLAX46Y46*%
G04 Gerber Fmt 4.6, Leading zero omitted, Abs format (unit mm)*
G04 Created by KiCad (PCBNEW 5.1.9-73d0e3b20d~88~ubuntu20.04.1) date 2021-03-20 19:20:58*
%MOMM*%
%LPD*%
G01*
G04 APERTURE LIST*
%ADD10C,1.700000*%
%ADD11C,4.000000*%
%ADD12C,2.200000*%
%ADD13C,2.032000*%
%ADD14O,1.400000X1.400000*%
%ADD15C,1.400000*%
%ADD16R,2.000000X2.000000*%
%ADD17C,2.000000*%
%ADD18R,3.200000X2.000000*%
%ADD19C,3.200000*%
%ADD20R,1.200000X0.900000*%
%ADD21R,1.800000X1.800000*%
%ADD22C,1.800000*%
%ADD23C,3.050000*%
G04 APERTURE END LIST*
D10*
%TO.C,SW2*%
X149680000Y-37700000D03*
X139520000Y-37700000D03*
D11*
X144600000Y-37700000D03*
D12*
X140790000Y-35160000D03*
X147140000Y-32620000D03*
%TD*%
D10*
%TO.C,MX1*%
X111580000Y-56750000D03*
X101420000Y-56750000D03*
D11*
X106500000Y-56750000D03*
D12*
X102690000Y-54210000D03*
X109040000Y-51670000D03*
%TD*%
D13*
%TO.C,U1*%
X113866000Y-46336000D03*
X121486000Y-46336000D03*
X118946000Y-46336000D03*
X111326000Y-46336000D03*
X116406000Y-46336000D03*
X98626000Y-46336000D03*
X101166000Y-46336000D03*
X103706000Y-46336000D03*
X106246000Y-46336000D03*
X126566000Y-46336000D03*
X124026000Y-46336000D03*
X108786000Y-46336000D03*
X98626000Y-31096000D03*
X101166000Y-31096000D03*
X103706000Y-31096000D03*
X106246000Y-31096000D03*
X108786000Y-31096000D03*
X111326000Y-31096000D03*
X113866000Y-31096000D03*
X116406000Y-31096000D03*
X118946000Y-31096000D03*
X121486000Y-31096000D03*
X124026000Y-31096000D03*
X126566000Y-31096000D03*
%TD*%
D10*
%TO.C,MX6*%
X130630000Y-56750000D03*
X120470000Y-56750000D03*
D11*
X125550000Y-56750000D03*
D12*
X121740000Y-54210000D03*
X128090000Y-51670000D03*
%TD*%
D14*
%TO.C,R4*%
X141298000Y-26397000D03*
D15*
X148918000Y-26397000D03*
%TD*%
D16*
%TO.C,SW1*%
X156030000Y-35160000D03*
D17*
X156030000Y-37660000D03*
X156030000Y-40160000D03*
D18*
X163530000Y-32060000D03*
X163530000Y-43260000D03*
D17*
X170530000Y-35160000D03*
X170530000Y-40160000D03*
%TD*%
D19*
%TO.C,REF\u002A\u002A*%
X172540000Y-26270000D03*
%TD*%
%TO.C,REF\u002A\u002A*%
X97610000Y-26270000D03*
%TD*%
%TO.C,REF\u002A\u002A*%
X97610000Y-141840000D03*
%TD*%
%TO.C,REF\u002A\u002A*%
X172540000Y-141840000D03*
%TD*%
D10*
%TO.C,MX2*%
X111580000Y-75800000D03*
X101420000Y-75800000D03*
D11*
X106500000Y-75800000D03*
D12*
X102690000Y-73260000D03*
X109040000Y-70720000D03*
%TD*%
D20*
%TO.C,D1*%
X170508000Y-48366000D03*
X170508000Y-45066000D03*
%TD*%
D21*
%TO.C,D20*%
X135049600Y-26549400D03*
D22*
X135049600Y-29089400D03*
%TD*%
D21*
%TO.C,D21*%
X130528400Y-26549400D03*
D22*
X130528400Y-29089400D03*
%TD*%
D14*
%TO.C,R5*%
X141298000Y-28556000D03*
D15*
X148918000Y-28556000D03*
%TD*%
D14*
%TO.C,R3*%
X136599000Y-40494000D03*
D15*
X128979000Y-40494000D03*
%TD*%
D22*
%TO.C,D19*%
X134059000Y-37192000D03*
D21*
X131519000Y-37192000D03*
%TD*%
D14*
%TO.C,R2*%
X159840000Y-28810000D03*
D15*
X167460000Y-28810000D03*
%TD*%
D14*
%TO.C,R1*%
X159840000Y-26075001D03*
D15*
X167460000Y-26075001D03*
%TD*%
D10*
%TO.C,MX8*%
X130630000Y-94850000D03*
X120470000Y-94850000D03*
D11*
X125550000Y-94850000D03*
D12*
X121740000Y-92310000D03*
X128090000Y-89770000D03*
%TD*%
D10*
%TO.C,MX11*%
X149680000Y-75800000D03*
X139520000Y-75800000D03*
D11*
X144600000Y-75800000D03*
D12*
X140790000Y-73260000D03*
X147140000Y-70720000D03*
%TD*%
D10*
%TO.C,MX12*%
X149680000Y-94850000D03*
X139520000Y-94850000D03*
D11*
X144600000Y-94850000D03*
D12*
X140790000Y-92310000D03*
X147140000Y-89770000D03*
%TD*%
D10*
%TO.C,MX9*%
X130630000Y-113900000D03*
X120470000Y-113900000D03*
D11*
X125550000Y-113900000D03*
D12*
X121740000Y-111360000D03*
X128090000Y-108820000D03*
%TD*%
D10*
%TO.C,MX13*%
X149680000Y-113900000D03*
X139520000Y-113900000D03*
D11*
X144600000Y-113900000D03*
D12*
X140790000Y-111360000D03*
X147140000Y-108820000D03*
%TD*%
D10*
%TO.C,MX7*%
X130630000Y-75800000D03*
X120470000Y-75800000D03*
D11*
X125550000Y-75800000D03*
D12*
X121740000Y-73260000D03*
X128090000Y-70720000D03*
%TD*%
D10*
%TO.C,MX10*%
X149680000Y-56750000D03*
X139520000Y-56750000D03*
D11*
X144600000Y-56750000D03*
D12*
X140790000Y-54210000D03*
X147140000Y-51670000D03*
%TD*%
D10*
%TO.C,MX14*%
X149680000Y-132950000D03*
X139520000Y-132950000D03*
D11*
X144600000Y-132950000D03*
D12*
X140790000Y-130410000D03*
X147140000Y-127870000D03*
%TD*%
D20*
%TO.C,D13*%
X142218750Y-89356250D03*
X142218750Y-86056250D03*
%TD*%
%TO.C,D14*%
X142218750Y-108406250D03*
X142218750Y-105106250D03*
%TD*%
%TO.C,D15*%
X142218750Y-127456250D03*
X142218750Y-124156250D03*
%TD*%
%TO.C,D16*%
X161268750Y-59862500D03*
X161268750Y-63162500D03*
%TD*%
%TO.C,D7*%
X123168750Y-59862500D03*
X123168750Y-63162500D03*
%TD*%
%TO.C,D4*%
X104118750Y-89356250D03*
X104118750Y-86056250D03*
%TD*%
%TO.C,D8*%
X123168750Y-70306250D03*
X123168750Y-67006250D03*
%TD*%
%TO.C,D6*%
X113643750Y-127456250D03*
X113643750Y-124156250D03*
%TD*%
%TO.C,D18*%
X154125000Y-127456250D03*
X154125000Y-124156250D03*
%TD*%
D23*
%TO.C,MX16*%
X156650000Y-73425000D03*
X156650000Y-97225000D03*
D11*
X171890000Y-97225000D03*
X171890000Y-73425000D03*
D10*
X168730000Y-85325000D03*
X158570000Y-85325000D03*
D11*
X163650000Y-85325000D03*
D12*
X159840000Y-82785000D03*
X166190000Y-80245000D03*
%TD*%
D10*
%TO.C,MX3*%
X111580000Y-94850000D03*
X101420000Y-94850000D03*
D11*
X106500000Y-94850000D03*
D12*
X102690000Y-92310000D03*
X109040000Y-89770000D03*
%TD*%
D10*
%TO.C,MX4*%
X111580000Y-113900000D03*
X101420000Y-113900000D03*
D11*
X106500000Y-113900000D03*
D12*
X102690000Y-111360000D03*
X109040000Y-108820000D03*
%TD*%
D20*
%TO.C,D5*%
X104118750Y-108406250D03*
X104118750Y-105106250D03*
%TD*%
D23*
%TO.C,MX17*%
X156650000Y-111525000D03*
X156650000Y-135325000D03*
D11*
X171890000Y-135325000D03*
X171890000Y-111525000D03*
D10*
X168730000Y-123425000D03*
X158570000Y-123425000D03*
D11*
X163650000Y-123425000D03*
D12*
X159840000Y-120885000D03*
X166190000Y-118345000D03*
%TD*%
D20*
%TO.C,D17*%
X154125000Y-89356250D03*
X154125000Y-86056250D03*
%TD*%
%TO.C,D3*%
X104118750Y-70306250D03*
X104118750Y-67006250D03*
%TD*%
D23*
%TO.C,MX5*%
X127925000Y-125950000D03*
X104125000Y-125950000D03*
D11*
X104125000Y-141190000D03*
X127925000Y-141190000D03*
D10*
X121105000Y-132950000D03*
X110945000Y-132950000D03*
D11*
X116025000Y-132950000D03*
D12*
X112215000Y-130410000D03*
X118565000Y-127870000D03*
%TD*%
D20*
%TO.C,D11*%
X142218750Y-59862500D03*
X142218750Y-63162500D03*
%TD*%
%TO.C,D12*%
X142218750Y-70306250D03*
X142218750Y-67006250D03*
%TD*%
%TO.C,D9*%
X123168750Y-89356250D03*
X123168750Y-86056250D03*
%TD*%
%TO.C,D10*%
X123168750Y-108406250D03*
X123168750Y-105106250D03*
%TD*%
D10*
%TO.C,MX15*%
X168730000Y-56750000D03*
X158570000Y-56750000D03*
D11*
X163650000Y-56750000D03*
D12*
X159840000Y-54210000D03*
X166190000Y-51670000D03*
%TD*%
D20*
%TO.C,D2*%
X104118750Y-59862500D03*
X104118750Y-63162500D03*
%TD*%
M02*
