%TF.GenerationSoftware,KiCad,Pcbnew,5.1.9-73d0e3b20d~88~ubuntu20.04.1*%
%TF.CreationDate,2021-03-20T19:20:58-05:00*%
%TF.ProjectId,KeypadMacropad1,4b657970-6164-44d6-9163-726f70616431,rev?*%
%TF.SameCoordinates,Original*%
%TF.FileFunction,Legend,Top*%
%TF.FilePolarity,Positive*%
%FSLAX46Y46*%
G04 Gerber Fmt 4.6, Leading zero omitted, Abs format (unit mm)*
G04 Created by KiCad (PCBNEW 5.1.9-73d0e3b20d~88~ubuntu20.04.1) date 2021-03-20 19:20:58*
%MOMM*%
%LPD*%
G01*
G04 APERTURE LIST*
%ADD10C,0.120000*%
%ADD11C,0.203200*%
%ADD12C,0.150000*%
G04 APERTURE END LIST*
D10*
%TO.C,SW2*%
X137615000Y-44685000D02*
X137615000Y-30715000D01*
X151585000Y-44685000D02*
X137615000Y-44685000D01*
X151585000Y-30715000D02*
X151585000Y-44685000D01*
X137615000Y-30715000D02*
X151585000Y-30715000D01*
%TO.C,MX1*%
X99515000Y-63735000D02*
X99515000Y-49765000D01*
X113485000Y-63735000D02*
X99515000Y-63735000D01*
X113485000Y-49765000D02*
X113485000Y-63735000D01*
X99515000Y-49765000D02*
X113485000Y-49765000D01*
D11*
%TO.C,U1*%
X94816000Y-29826000D02*
X94816000Y-47606000D01*
X94816000Y-47606000D02*
X127836000Y-47606000D01*
X127836000Y-29826000D02*
X127836000Y-47606000D01*
X94816000Y-29826000D02*
X127836000Y-29826000D01*
D10*
%TO.C,MX6*%
X118565000Y-63735000D02*
X118565000Y-49765000D01*
X132535000Y-63735000D02*
X118565000Y-63735000D01*
X132535000Y-49765000D02*
X132535000Y-63735000D01*
X118565000Y-49765000D02*
X132535000Y-49765000D01*
%TO.C,R4*%
X147028000Y-27317000D02*
X147028000Y-25477000D01*
X147028000Y-25477000D02*
X143188000Y-25477000D01*
X143188000Y-25477000D02*
X143188000Y-27317000D01*
X143188000Y-27317000D02*
X147028000Y-27317000D01*
X147978000Y-26397000D02*
X147028000Y-26397000D01*
X142238000Y-26397000D02*
X143188000Y-26397000D01*
%TO.C,SW1*%
X163030000Y-37660000D02*
X164030000Y-37660000D01*
X163530000Y-37160000D02*
X163530000Y-38160000D01*
X169630000Y-41160000D02*
X169630000Y-43560000D01*
X169630000Y-36360000D02*
X169630000Y-38960000D01*
X169630000Y-31760000D02*
X169630000Y-34160000D01*
X156330000Y-33560000D02*
X156030000Y-33860000D01*
X155730000Y-33560000D02*
X156330000Y-33560000D01*
X156030000Y-33860000D02*
X155730000Y-33560000D01*
X157430000Y-31760000D02*
X157430000Y-43560000D01*
X161530000Y-31760000D02*
X157430000Y-31760000D01*
X161530000Y-43560000D02*
X157430000Y-43560000D01*
X169630000Y-43560000D02*
X165530000Y-43560000D01*
X165530000Y-31760000D02*
X169630000Y-31760000D01*
X166530000Y-37660000D02*
G75*
G03*
X166530000Y-37660000I-3000000J0D01*
G01*
%TO.C,MX2*%
X99515000Y-82785000D02*
X99515000Y-68815000D01*
X113485000Y-82785000D02*
X99515000Y-82785000D01*
X113485000Y-68815000D02*
X113485000Y-82785000D01*
X99515000Y-68815000D02*
X113485000Y-68815000D01*
%TO.C,D20*%
X133969600Y-26259400D02*
X133813600Y-26259400D01*
X136285600Y-26259400D02*
X136129600Y-26259400D01*
X136128208Y-29491735D02*
G75*
G03*
X136285116Y-26259400I-1078608J1672335D01*
G01*
X133970992Y-29491735D02*
G75*
G02*
X133814084Y-26259400I1078608J1672335D01*
G01*
X136129437Y-28860530D02*
G75*
G03*
X136129600Y-26778439I-1079837J1041130D01*
G01*
X133969763Y-28860530D02*
G75*
G02*
X133969600Y-26778439I1079837J1041130D01*
G01*
%TO.C,D21*%
X129448400Y-26259400D02*
X129292400Y-26259400D01*
X131764400Y-26259400D02*
X131608400Y-26259400D01*
X131607008Y-29491735D02*
G75*
G03*
X131763916Y-26259400I-1078608J1672335D01*
G01*
X129449792Y-29491735D02*
G75*
G02*
X129292884Y-26259400I1078608J1672335D01*
G01*
X131608237Y-28860530D02*
G75*
G03*
X131608400Y-26778439I-1079837J1041130D01*
G01*
X129448563Y-28860530D02*
G75*
G02*
X129448400Y-26778439I1079837J1041130D01*
G01*
%TO.C,R5*%
X147028000Y-29476000D02*
X147028000Y-27636000D01*
X147028000Y-27636000D02*
X143188000Y-27636000D01*
X143188000Y-27636000D02*
X143188000Y-29476000D01*
X143188000Y-29476000D02*
X147028000Y-29476000D01*
X147978000Y-28556000D02*
X147028000Y-28556000D01*
X142238000Y-28556000D02*
X143188000Y-28556000D01*
%TO.C,R3*%
X130869000Y-39574000D02*
X130869000Y-41414000D01*
X130869000Y-41414000D02*
X134709000Y-41414000D01*
X134709000Y-41414000D02*
X134709000Y-39574000D01*
X134709000Y-39574000D02*
X130869000Y-39574000D01*
X129919000Y-40494000D02*
X130869000Y-40494000D01*
X135659000Y-40494000D02*
X134709000Y-40494000D01*
%TO.C,D19*%
X131229000Y-35956000D02*
X131229000Y-36112000D01*
X131229000Y-38272000D02*
X131229000Y-38428000D01*
X133830130Y-38271837D02*
G75*
G02*
X131748039Y-38272000I-1041130J1079837D01*
G01*
X133830130Y-36112163D02*
G75*
G03*
X131748039Y-36112000I-1041130J-1079837D01*
G01*
X134461335Y-38270608D02*
G75*
G02*
X131229000Y-38427516I-1672335J1078608D01*
G01*
X134461335Y-36113392D02*
G75*
G03*
X131229000Y-35956484I-1672335J-1078608D01*
G01*
%TO.C,R2*%
X160780000Y-28810000D02*
X161730000Y-28810000D01*
X166520000Y-28810000D02*
X165570000Y-28810000D01*
X161730000Y-29730000D02*
X165570000Y-29730000D01*
X161730000Y-27890000D02*
X161730000Y-29730000D01*
X165570000Y-27890000D02*
X161730000Y-27890000D01*
X165570000Y-29730000D02*
X165570000Y-27890000D01*
%TO.C,R1*%
X160780000Y-26075001D02*
X161730000Y-26075001D01*
X166520000Y-26075001D02*
X165570000Y-26075001D01*
X161730000Y-26995001D02*
X165570000Y-26995001D01*
X161730000Y-25155001D02*
X161730000Y-26995001D01*
X165570000Y-25155001D02*
X161730000Y-25155001D01*
X165570000Y-26995001D02*
X165570000Y-25155001D01*
%TO.C,MX8*%
X118565000Y-101835000D02*
X118565000Y-87865000D01*
X132535000Y-101835000D02*
X118565000Y-101835000D01*
X132535000Y-87865000D02*
X132535000Y-101835000D01*
X118565000Y-87865000D02*
X132535000Y-87865000D01*
%TO.C,MX11*%
X137615000Y-82785000D02*
X137615000Y-68815000D01*
X151585000Y-82785000D02*
X137615000Y-82785000D01*
X151585000Y-68815000D02*
X151585000Y-82785000D01*
X137615000Y-68815000D02*
X151585000Y-68815000D01*
%TO.C,MX12*%
X137615000Y-101835000D02*
X137615000Y-87865000D01*
X151585000Y-101835000D02*
X137615000Y-101835000D01*
X151585000Y-87865000D02*
X151585000Y-101835000D01*
X137615000Y-87865000D02*
X151585000Y-87865000D01*
%TO.C,MX9*%
X118565000Y-120885000D02*
X118565000Y-106915000D01*
X132535000Y-120885000D02*
X118565000Y-120885000D01*
X132535000Y-106915000D02*
X132535000Y-120885000D01*
X118565000Y-106915000D02*
X132535000Y-106915000D01*
%TO.C,MX13*%
X137615000Y-120885000D02*
X137615000Y-106915000D01*
X151585000Y-120885000D02*
X137615000Y-120885000D01*
X151585000Y-106915000D02*
X151585000Y-120885000D01*
X137615000Y-106915000D02*
X151585000Y-106915000D01*
%TO.C,MX7*%
X118565000Y-82785000D02*
X118565000Y-68815000D01*
X132535000Y-82785000D02*
X118565000Y-82785000D01*
X132535000Y-68815000D02*
X132535000Y-82785000D01*
X118565000Y-68815000D02*
X132535000Y-68815000D01*
%TO.C,MX10*%
X137615000Y-63735000D02*
X137615000Y-49765000D01*
X151585000Y-63735000D02*
X137615000Y-63735000D01*
X151585000Y-49765000D02*
X151585000Y-63735000D01*
X137615000Y-49765000D02*
X151585000Y-49765000D01*
%TO.C,MX14*%
X137615000Y-139935000D02*
X137615000Y-125965000D01*
X151585000Y-139935000D02*
X137615000Y-139935000D01*
X151585000Y-125965000D02*
X151585000Y-139935000D01*
X137615000Y-125965000D02*
X151585000Y-125965000D01*
%TO.C,MX16*%
X156665000Y-92310000D02*
X156665000Y-78340000D01*
X170635000Y-92310000D02*
X156665000Y-92310000D01*
X170635000Y-78340000D02*
X170635000Y-92310000D01*
X156665000Y-78340000D02*
X170635000Y-78340000D01*
%TO.C,MX3*%
X99515000Y-101835000D02*
X99515000Y-87865000D01*
X113485000Y-101835000D02*
X99515000Y-101835000D01*
X113485000Y-87865000D02*
X113485000Y-101835000D01*
X99515000Y-87865000D02*
X113485000Y-87865000D01*
%TO.C,MX4*%
X99515000Y-120885000D02*
X99515000Y-106915000D01*
X113485000Y-120885000D02*
X99515000Y-120885000D01*
X113485000Y-106915000D02*
X113485000Y-120885000D01*
X99515000Y-106915000D02*
X113485000Y-106915000D01*
%TO.C,MX17*%
X156665000Y-130410000D02*
X156665000Y-116440000D01*
X170635000Y-130410000D02*
X156665000Y-130410000D01*
X170635000Y-116440000D02*
X170635000Y-130410000D01*
X156665000Y-116440000D02*
X170635000Y-116440000D01*
%TO.C,MX5*%
X109040000Y-139935000D02*
X109040000Y-125965000D01*
X123010000Y-139935000D02*
X109040000Y-139935000D01*
X123010000Y-125965000D02*
X123010000Y-139935000D01*
X109040000Y-125965000D02*
X123010000Y-125965000D01*
%TO.C,MX15*%
X156665000Y-63735000D02*
X156665000Y-49765000D01*
X170635000Y-63735000D02*
X156665000Y-63735000D01*
X170635000Y-49765000D02*
X170635000Y-63735000D01*
X156665000Y-49765000D02*
X170635000Y-49765000D01*
%TO.C,SW2*%
D12*
X137678666Y-30484761D02*
X137821523Y-30532380D01*
X138059619Y-30532380D01*
X138154857Y-30484761D01*
X138202476Y-30437142D01*
X138250095Y-30341904D01*
X138250095Y-30246666D01*
X138202476Y-30151428D01*
X138154857Y-30103809D01*
X138059619Y-30056190D01*
X137869142Y-30008571D01*
X137773904Y-29960952D01*
X137726285Y-29913333D01*
X137678666Y-29818095D01*
X137678666Y-29722857D01*
X137726285Y-29627619D01*
X137773904Y-29580000D01*
X137869142Y-29532380D01*
X138107238Y-29532380D01*
X138250095Y-29580000D01*
X138583428Y-29532380D02*
X138821523Y-30532380D01*
X139012000Y-29818095D01*
X139202476Y-30532380D01*
X139440571Y-29532380D01*
X139773904Y-29627619D02*
X139821523Y-29580000D01*
X139916761Y-29532380D01*
X140154857Y-29532380D01*
X140250095Y-29580000D01*
X140297714Y-29627619D01*
X140345333Y-29722857D01*
X140345333Y-29818095D01*
X140297714Y-29960952D01*
X139726285Y-30532380D01*
X140345333Y-30532380D01*
%TO.C,MX1*%
X105214285Y-49328380D02*
X105214285Y-48328380D01*
X105547619Y-49042666D01*
X105880952Y-48328380D01*
X105880952Y-49328380D01*
X106261904Y-48328380D02*
X106928571Y-49328380D01*
X106928571Y-48328380D02*
X106261904Y-49328380D01*
X107833333Y-49328380D02*
X107261904Y-49328380D01*
X107547619Y-49328380D02*
X107547619Y-48328380D01*
X107452380Y-48471238D01*
X107357142Y-48566476D01*
X107261904Y-48614095D01*
%TO.C,U1*%
X110564095Y-48328380D02*
X110564095Y-49137904D01*
X110611714Y-49233142D01*
X110659333Y-49280761D01*
X110754571Y-49328380D01*
X110945047Y-49328380D01*
X111040285Y-49280761D01*
X111087904Y-49233142D01*
X111135523Y-49137904D01*
X111135523Y-48328380D01*
X112135523Y-49328380D02*
X111564095Y-49328380D01*
X111849809Y-49328380D02*
X111849809Y-48328380D01*
X111754571Y-48471238D01*
X111659333Y-48566476D01*
X111564095Y-48614095D01*
X127018380Y-45010166D02*
X126018380Y-45010166D01*
X126018380Y-44772071D01*
X126066000Y-44629214D01*
X126161238Y-44533976D01*
X126256476Y-44486357D01*
X126446952Y-44438738D01*
X126589809Y-44438738D01*
X126780285Y-44486357D01*
X126875523Y-44533976D01*
X126970761Y-44629214D01*
X127018380Y-44772071D01*
X127018380Y-45010166D01*
X127018380Y-43962547D02*
X127018380Y-43772071D01*
X126970761Y-43676833D01*
X126923142Y-43629214D01*
X126780285Y-43533976D01*
X126589809Y-43486357D01*
X126208857Y-43486357D01*
X126113619Y-43533976D01*
X126066000Y-43581595D01*
X126018380Y-43676833D01*
X126018380Y-43867309D01*
X126066000Y-43962547D01*
X126113619Y-44010166D01*
X126208857Y-44057785D01*
X126446952Y-44057785D01*
X126542190Y-44010166D01*
X126589809Y-43962547D01*
X126637428Y-43867309D01*
X126637428Y-43676833D01*
X126589809Y-43581595D01*
X126542190Y-43533976D01*
X126446952Y-43486357D01*
X125970761Y-42343500D02*
X127256476Y-43200642D01*
X126732666Y-42057785D02*
X126732666Y-41581595D01*
X127018380Y-42153023D02*
X126018380Y-41819690D01*
X127018380Y-41486357D01*
X127018380Y-41105404D02*
X127018380Y-40914928D01*
X126970761Y-40819690D01*
X126923142Y-40772071D01*
X126780285Y-40676833D01*
X126589809Y-40629214D01*
X126208857Y-40629214D01*
X126113619Y-40676833D01*
X126066000Y-40724452D01*
X126018380Y-40819690D01*
X126018380Y-41010166D01*
X126066000Y-41105404D01*
X126113619Y-41153023D01*
X126208857Y-41200642D01*
X126446952Y-41200642D01*
X126542190Y-41153023D01*
X126589809Y-41105404D01*
X126637428Y-41010166D01*
X126637428Y-40819690D01*
X126589809Y-40724452D01*
X126542190Y-40676833D01*
X126446952Y-40629214D01*
X124478380Y-45010166D02*
X123478380Y-45010166D01*
X123478380Y-44772071D01*
X123526000Y-44629214D01*
X123621238Y-44533976D01*
X123716476Y-44486357D01*
X123906952Y-44438738D01*
X124049809Y-44438738D01*
X124240285Y-44486357D01*
X124335523Y-44533976D01*
X124430761Y-44629214D01*
X124478380Y-44772071D01*
X124478380Y-45010166D01*
X123906952Y-43867309D02*
X123859333Y-43962547D01*
X123811714Y-44010166D01*
X123716476Y-44057785D01*
X123668857Y-44057785D01*
X123573619Y-44010166D01*
X123526000Y-43962547D01*
X123478380Y-43867309D01*
X123478380Y-43676833D01*
X123526000Y-43581595D01*
X123573619Y-43533976D01*
X123668857Y-43486357D01*
X123716476Y-43486357D01*
X123811714Y-43533976D01*
X123859333Y-43581595D01*
X123906952Y-43676833D01*
X123906952Y-43867309D01*
X123954571Y-43962547D01*
X124002190Y-44010166D01*
X124097428Y-44057785D01*
X124287904Y-44057785D01*
X124383142Y-44010166D01*
X124430761Y-43962547D01*
X124478380Y-43867309D01*
X124478380Y-43676833D01*
X124430761Y-43581595D01*
X124383142Y-43533976D01*
X124287904Y-43486357D01*
X124097428Y-43486357D01*
X124002190Y-43533976D01*
X123954571Y-43581595D01*
X123906952Y-43676833D01*
X123430761Y-42343500D02*
X124716476Y-43200642D01*
X124192666Y-42057785D02*
X124192666Y-41581595D01*
X124478380Y-42153023D02*
X123478380Y-41819690D01*
X124478380Y-41486357D01*
X123906952Y-41010166D02*
X123859333Y-41105404D01*
X123811714Y-41153023D01*
X123716476Y-41200642D01*
X123668857Y-41200642D01*
X123573619Y-41153023D01*
X123526000Y-41105404D01*
X123478380Y-41010166D01*
X123478380Y-40819690D01*
X123526000Y-40724452D01*
X123573619Y-40676833D01*
X123668857Y-40629214D01*
X123716476Y-40629214D01*
X123811714Y-40676833D01*
X123859333Y-40724452D01*
X123906952Y-40819690D01*
X123906952Y-41010166D01*
X123954571Y-41105404D01*
X124002190Y-41153023D01*
X124097428Y-41200642D01*
X124287904Y-41200642D01*
X124383142Y-41153023D01*
X124430761Y-41105404D01*
X124478380Y-41010166D01*
X124478380Y-40819690D01*
X124430761Y-40724452D01*
X124383142Y-40676833D01*
X124287904Y-40629214D01*
X124097428Y-40629214D01*
X124002190Y-40676833D01*
X123954571Y-40724452D01*
X123906952Y-40819690D01*
X121938380Y-44851595D02*
X120938380Y-44851595D01*
X120938380Y-44613500D01*
X120986000Y-44470642D01*
X121081238Y-44375404D01*
X121176476Y-44327785D01*
X121366952Y-44280166D01*
X121509809Y-44280166D01*
X121700285Y-44327785D01*
X121795523Y-44375404D01*
X121890761Y-44470642D01*
X121938380Y-44613500D01*
X121938380Y-44851595D01*
X120938380Y-43946833D02*
X120938380Y-43280166D01*
X121938380Y-43708738D01*
X119398380Y-45010166D02*
X118398380Y-45010166D01*
X118398380Y-44772071D01*
X118446000Y-44629214D01*
X118541238Y-44533976D01*
X118636476Y-44486357D01*
X118826952Y-44438738D01*
X118969809Y-44438738D01*
X119160285Y-44486357D01*
X119255523Y-44533976D01*
X119350761Y-44629214D01*
X119398380Y-44772071D01*
X119398380Y-45010166D01*
X118398380Y-43581595D02*
X118398380Y-43772071D01*
X118446000Y-43867309D01*
X118493619Y-43914928D01*
X118636476Y-44010166D01*
X118826952Y-44057785D01*
X119207904Y-44057785D01*
X119303142Y-44010166D01*
X119350761Y-43962547D01*
X119398380Y-43867309D01*
X119398380Y-43676833D01*
X119350761Y-43581595D01*
X119303142Y-43533976D01*
X119207904Y-43486357D01*
X118969809Y-43486357D01*
X118874571Y-43533976D01*
X118826952Y-43581595D01*
X118779333Y-43676833D01*
X118779333Y-43867309D01*
X118826952Y-43962547D01*
X118874571Y-44010166D01*
X118969809Y-44057785D01*
X118350761Y-42343500D02*
X119636476Y-43200642D01*
X119112666Y-42057785D02*
X119112666Y-41581595D01*
X119398380Y-42153023D02*
X118398380Y-41819690D01*
X119398380Y-41486357D01*
X118398380Y-41248261D02*
X118398380Y-40581595D01*
X119398380Y-41010166D01*
X116858380Y-44851595D02*
X115858380Y-44851595D01*
X115858380Y-44613500D01*
X115906000Y-44470642D01*
X116001238Y-44375404D01*
X116096476Y-44327785D01*
X116286952Y-44280166D01*
X116429809Y-44280166D01*
X116620285Y-44327785D01*
X116715523Y-44375404D01*
X116810761Y-44470642D01*
X116858380Y-44613500D01*
X116858380Y-44851595D01*
X115858380Y-43375404D02*
X115858380Y-43851595D01*
X116334571Y-43899214D01*
X116286952Y-43851595D01*
X116239333Y-43756357D01*
X116239333Y-43518261D01*
X116286952Y-43423023D01*
X116334571Y-43375404D01*
X116429809Y-43327785D01*
X116667904Y-43327785D01*
X116763142Y-43375404D01*
X116810761Y-43423023D01*
X116858380Y-43518261D01*
X116858380Y-43756357D01*
X116810761Y-43851595D01*
X116763142Y-43899214D01*
X114318380Y-45010166D02*
X113318380Y-45010166D01*
X113318380Y-44772071D01*
X113366000Y-44629214D01*
X113461238Y-44533976D01*
X113556476Y-44486357D01*
X113746952Y-44438738D01*
X113889809Y-44438738D01*
X114080285Y-44486357D01*
X114175523Y-44533976D01*
X114270761Y-44629214D01*
X114318380Y-44772071D01*
X114318380Y-45010166D01*
X113651714Y-43581595D02*
X114318380Y-43581595D01*
X113270761Y-43819690D02*
X113985047Y-44057785D01*
X113985047Y-43438738D01*
X113270761Y-42343500D02*
X114556476Y-43200642D01*
X114032666Y-42057785D02*
X114032666Y-41581595D01*
X114318380Y-42153023D02*
X113318380Y-41819690D01*
X114318380Y-41486357D01*
X113318380Y-40724452D02*
X113318380Y-40914928D01*
X113366000Y-41010166D01*
X113413619Y-41057785D01*
X113556476Y-41153023D01*
X113746952Y-41200642D01*
X114127904Y-41200642D01*
X114223142Y-41153023D01*
X114270761Y-41105404D01*
X114318380Y-41010166D01*
X114318380Y-40819690D01*
X114270761Y-40724452D01*
X114223142Y-40676833D01*
X114127904Y-40629214D01*
X113889809Y-40629214D01*
X113794571Y-40676833D01*
X113746952Y-40724452D01*
X113699333Y-40819690D01*
X113699333Y-41010166D01*
X113746952Y-41105404D01*
X113794571Y-41153023D01*
X113889809Y-41200642D01*
X111778380Y-44851595D02*
X110778380Y-44851595D01*
X110778380Y-44613500D01*
X110826000Y-44470642D01*
X110921238Y-44375404D01*
X111016476Y-44327785D01*
X111206952Y-44280166D01*
X111349809Y-44280166D01*
X111540285Y-44327785D01*
X111635523Y-44375404D01*
X111730761Y-44470642D01*
X111778380Y-44613500D01*
X111778380Y-44851595D01*
X110778380Y-43946833D02*
X110778380Y-43327785D01*
X111159333Y-43661119D01*
X111159333Y-43518261D01*
X111206952Y-43423023D01*
X111254571Y-43375404D01*
X111349809Y-43327785D01*
X111587904Y-43327785D01*
X111683142Y-43375404D01*
X111730761Y-43423023D01*
X111778380Y-43518261D01*
X111778380Y-43803976D01*
X111730761Y-43899214D01*
X111683142Y-43946833D01*
X109238380Y-44851595D02*
X108238380Y-44851595D01*
X108238380Y-44613500D01*
X108286000Y-44470642D01*
X108381238Y-44375404D01*
X108476476Y-44327785D01*
X108666952Y-44280166D01*
X108809809Y-44280166D01*
X109000285Y-44327785D01*
X109095523Y-44375404D01*
X109190761Y-44470642D01*
X109238380Y-44613500D01*
X109238380Y-44851595D01*
X108333619Y-43899214D02*
X108286000Y-43851595D01*
X108238380Y-43756357D01*
X108238380Y-43518261D01*
X108286000Y-43423023D01*
X108333619Y-43375404D01*
X108428857Y-43327785D01*
X108524095Y-43327785D01*
X108666952Y-43375404D01*
X109238380Y-43946833D01*
X109238380Y-43327785D01*
X101618380Y-45081595D02*
X100618380Y-45081595D01*
X100618380Y-44843500D01*
X100666000Y-44700642D01*
X100761238Y-44605404D01*
X100856476Y-44557785D01*
X101046952Y-44510166D01*
X101189809Y-44510166D01*
X101380285Y-44557785D01*
X101475523Y-44605404D01*
X101570761Y-44700642D01*
X101618380Y-44843500D01*
X101618380Y-45081595D01*
X100618380Y-43891119D02*
X100618380Y-43795880D01*
X100666000Y-43700642D01*
X100713619Y-43653023D01*
X100808857Y-43605404D01*
X100999333Y-43557785D01*
X101237428Y-43557785D01*
X101427904Y-43605404D01*
X101523142Y-43653023D01*
X101570761Y-43700642D01*
X101618380Y-43795880D01*
X101618380Y-43891119D01*
X101570761Y-43986357D01*
X101523142Y-44033976D01*
X101427904Y-44081595D01*
X101237428Y-44129214D01*
X100999333Y-44129214D01*
X100808857Y-44081595D01*
X100713619Y-44033976D01*
X100666000Y-43986357D01*
X100618380Y-43891119D01*
X100570761Y-42414928D02*
X101856476Y-43272071D01*
X101618380Y-41510166D02*
X101142190Y-41843500D01*
X101618380Y-42081595D02*
X100618380Y-42081595D01*
X100618380Y-41700642D01*
X100666000Y-41605404D01*
X100713619Y-41557785D01*
X100808857Y-41510166D01*
X100951714Y-41510166D01*
X101046952Y-41557785D01*
X101094571Y-41605404D01*
X101142190Y-41700642D01*
X101142190Y-42081595D01*
X100618380Y-41176833D02*
X101618380Y-40510166D01*
X100618380Y-40510166D02*
X101618380Y-41176833D01*
X99078380Y-44962547D02*
X98078380Y-44962547D01*
X98078380Y-44724452D01*
X98126000Y-44581595D01*
X98221238Y-44486357D01*
X98316476Y-44438738D01*
X98506952Y-44391119D01*
X98649809Y-44391119D01*
X98840285Y-44438738D01*
X98935523Y-44486357D01*
X99030761Y-44581595D01*
X99078380Y-44724452D01*
X99078380Y-44962547D01*
X99078380Y-43438738D02*
X99078380Y-44010166D01*
X99078380Y-43724452D02*
X98078380Y-43724452D01*
X98221238Y-43819690D01*
X98316476Y-43914928D01*
X98364095Y-44010166D01*
X98030761Y-42295880D02*
X99316476Y-43153023D01*
X98078380Y-42105404D02*
X98078380Y-41533976D01*
X99078380Y-41819690D02*
X98078380Y-41819690D01*
X98078380Y-41295880D02*
X99078380Y-40629214D01*
X98078380Y-40629214D02*
X99078380Y-41295880D01*
X127018380Y-34850285D02*
X126018380Y-34850285D01*
X126018380Y-34612190D01*
X126066000Y-34469333D01*
X126161238Y-34374095D01*
X126256476Y-34326476D01*
X126446952Y-34278857D01*
X126589809Y-34278857D01*
X126780285Y-34326476D01*
X126875523Y-34374095D01*
X126970761Y-34469333D01*
X127018380Y-34612190D01*
X127018380Y-34850285D01*
X127018380Y-33326476D02*
X127018380Y-33897904D01*
X127018380Y-33612190D02*
X126018380Y-33612190D01*
X126161238Y-33707428D01*
X126256476Y-33802666D01*
X126304095Y-33897904D01*
X126018380Y-32707428D02*
X126018380Y-32612190D01*
X126066000Y-32516952D01*
X126113619Y-32469333D01*
X126208857Y-32421714D01*
X126399333Y-32374095D01*
X126637428Y-32374095D01*
X126827904Y-32421714D01*
X126923142Y-32469333D01*
X126970761Y-32516952D01*
X127018380Y-32612190D01*
X127018380Y-32707428D01*
X126970761Y-32802666D01*
X126923142Y-32850285D01*
X126827904Y-32897904D01*
X126637428Y-32945523D01*
X126399333Y-32945523D01*
X126208857Y-32897904D01*
X126113619Y-32850285D01*
X126066000Y-32802666D01*
X126018380Y-32707428D01*
X124478380Y-34850285D02*
X123478380Y-34850285D01*
X123478380Y-34612190D01*
X123526000Y-34469333D01*
X123621238Y-34374095D01*
X123716476Y-34326476D01*
X123906952Y-34278857D01*
X124049809Y-34278857D01*
X124240285Y-34326476D01*
X124335523Y-34374095D01*
X124430761Y-34469333D01*
X124478380Y-34612190D01*
X124478380Y-34850285D01*
X124478380Y-33326476D02*
X124478380Y-33897904D01*
X124478380Y-33612190D02*
X123478380Y-33612190D01*
X123621238Y-33707428D01*
X123716476Y-33802666D01*
X123764095Y-33897904D01*
X123478380Y-32469333D02*
X123478380Y-32659809D01*
X123526000Y-32755047D01*
X123573619Y-32802666D01*
X123716476Y-32897904D01*
X123906952Y-32945523D01*
X124287904Y-32945523D01*
X124383142Y-32897904D01*
X124430761Y-32850285D01*
X124478380Y-32755047D01*
X124478380Y-32564571D01*
X124430761Y-32469333D01*
X124383142Y-32421714D01*
X124287904Y-32374095D01*
X124049809Y-32374095D01*
X123954571Y-32421714D01*
X123906952Y-32469333D01*
X123859333Y-32564571D01*
X123859333Y-32755047D01*
X123906952Y-32850285D01*
X123954571Y-32897904D01*
X124049809Y-32945523D01*
X121938380Y-34850285D02*
X120938380Y-34850285D01*
X120938380Y-34612190D01*
X120986000Y-34469333D01*
X121081238Y-34374095D01*
X121176476Y-34326476D01*
X121366952Y-34278857D01*
X121509809Y-34278857D01*
X121700285Y-34326476D01*
X121795523Y-34374095D01*
X121890761Y-34469333D01*
X121938380Y-34612190D01*
X121938380Y-34850285D01*
X121938380Y-33326476D02*
X121938380Y-33897904D01*
X121938380Y-33612190D02*
X120938380Y-33612190D01*
X121081238Y-33707428D01*
X121176476Y-33802666D01*
X121224095Y-33897904D01*
X121271714Y-32469333D02*
X121938380Y-32469333D01*
X120890761Y-32707428D02*
X121605047Y-32945523D01*
X121605047Y-32326476D01*
X119398380Y-34850285D02*
X118398380Y-34850285D01*
X118398380Y-34612190D01*
X118446000Y-34469333D01*
X118541238Y-34374095D01*
X118636476Y-34326476D01*
X118826952Y-34278857D01*
X118969809Y-34278857D01*
X119160285Y-34326476D01*
X119255523Y-34374095D01*
X119350761Y-34469333D01*
X119398380Y-34612190D01*
X119398380Y-34850285D01*
X119398380Y-33326476D02*
X119398380Y-33897904D01*
X119398380Y-33612190D02*
X118398380Y-33612190D01*
X118541238Y-33707428D01*
X118636476Y-33802666D01*
X118684095Y-33897904D01*
X118398380Y-32421714D02*
X118398380Y-32897904D01*
X118874571Y-32945523D01*
X118826952Y-32897904D01*
X118779333Y-32802666D01*
X118779333Y-32564571D01*
X118826952Y-32469333D01*
X118874571Y-32421714D01*
X118969809Y-32374095D01*
X119207904Y-32374095D01*
X119303142Y-32421714D01*
X119350761Y-32469333D01*
X119398380Y-32564571D01*
X119398380Y-32802666D01*
X119350761Y-32897904D01*
X119303142Y-32945523D01*
X116572666Y-33715285D02*
X116572666Y-33239095D01*
X116858380Y-33810523D02*
X115858380Y-33477190D01*
X116858380Y-33143857D01*
X115858380Y-32620047D02*
X115858380Y-32524809D01*
X115906000Y-32429571D01*
X115953619Y-32381952D01*
X116048857Y-32334333D01*
X116239333Y-32286714D01*
X116477428Y-32286714D01*
X116667904Y-32334333D01*
X116763142Y-32381952D01*
X116810761Y-32429571D01*
X116858380Y-32524809D01*
X116858380Y-32620047D01*
X116810761Y-32715285D01*
X116763142Y-32762904D01*
X116667904Y-32810523D01*
X116477428Y-32858142D01*
X116239333Y-32858142D01*
X116048857Y-32810523D01*
X115953619Y-32762904D01*
X115906000Y-32715285D01*
X115858380Y-32620047D01*
X114032666Y-33715285D02*
X114032666Y-33239095D01*
X114318380Y-33810523D02*
X113318380Y-33477190D01*
X114318380Y-33143857D01*
X114318380Y-32286714D02*
X114318380Y-32858142D01*
X114318380Y-32572428D02*
X113318380Y-32572428D01*
X113461238Y-32667666D01*
X113556476Y-32762904D01*
X113604095Y-32858142D01*
X111492666Y-33715285D02*
X111492666Y-33239095D01*
X111778380Y-33810523D02*
X110778380Y-33477190D01*
X111778380Y-33143857D01*
X110873619Y-32858142D02*
X110826000Y-32810523D01*
X110778380Y-32715285D01*
X110778380Y-32477190D01*
X110826000Y-32381952D01*
X110873619Y-32334333D01*
X110968857Y-32286714D01*
X111064095Y-32286714D01*
X111206952Y-32334333D01*
X111778380Y-32905761D01*
X111778380Y-32286714D01*
X108952666Y-33715285D02*
X108952666Y-33239095D01*
X109238380Y-33810523D02*
X108238380Y-33477190D01*
X109238380Y-33143857D01*
X108238380Y-32905761D02*
X108238380Y-32286714D01*
X108619333Y-32620047D01*
X108619333Y-32477190D01*
X108666952Y-32381952D01*
X108714571Y-32334333D01*
X108809809Y-32286714D01*
X109047904Y-32286714D01*
X109143142Y-32334333D01*
X109190761Y-32381952D01*
X109238380Y-32477190D01*
X109238380Y-32762904D01*
X109190761Y-32858142D01*
X109143142Y-32905761D01*
X105698380Y-34969333D02*
X106698380Y-34636000D01*
X105698380Y-34302666D01*
X106603142Y-33397904D02*
X106650761Y-33445523D01*
X106698380Y-33588380D01*
X106698380Y-33683619D01*
X106650761Y-33826476D01*
X106555523Y-33921714D01*
X106460285Y-33969333D01*
X106269809Y-34016952D01*
X106126952Y-34016952D01*
X105936476Y-33969333D01*
X105841238Y-33921714D01*
X105746000Y-33826476D01*
X105698380Y-33683619D01*
X105698380Y-33588380D01*
X105746000Y-33445523D01*
X105793619Y-33397904D01*
X106603142Y-32397904D02*
X106650761Y-32445523D01*
X106698380Y-32588380D01*
X106698380Y-32683619D01*
X106650761Y-32826476D01*
X106555523Y-32921714D01*
X106460285Y-32969333D01*
X106269809Y-33016952D01*
X106126952Y-33016952D01*
X105936476Y-32969333D01*
X105841238Y-32921714D01*
X105746000Y-32826476D01*
X105698380Y-32683619D01*
X105698380Y-32588380D01*
X105746000Y-32445523D01*
X105793619Y-32397904D01*
X104158380Y-35723380D02*
X103682190Y-36056714D01*
X104158380Y-36294809D02*
X103158380Y-36294809D01*
X103158380Y-35913857D01*
X103206000Y-35818619D01*
X103253619Y-35771000D01*
X103348857Y-35723380D01*
X103491714Y-35723380D01*
X103586952Y-35771000D01*
X103634571Y-35818619D01*
X103682190Y-35913857D01*
X103682190Y-36294809D01*
X103634571Y-35294809D02*
X103634571Y-34961476D01*
X104158380Y-34818619D02*
X104158380Y-35294809D01*
X103158380Y-35294809D01*
X103158380Y-34818619D01*
X104110761Y-34437666D02*
X104158380Y-34294809D01*
X104158380Y-34056714D01*
X104110761Y-33961476D01*
X104063142Y-33913857D01*
X103967904Y-33866238D01*
X103872666Y-33866238D01*
X103777428Y-33913857D01*
X103729809Y-33961476D01*
X103682190Y-34056714D01*
X103634571Y-34247190D01*
X103586952Y-34342428D01*
X103539333Y-34390047D01*
X103444095Y-34437666D01*
X103348857Y-34437666D01*
X103253619Y-34390047D01*
X103206000Y-34342428D01*
X103158380Y-34247190D01*
X103158380Y-34009095D01*
X103206000Y-33866238D01*
X103634571Y-33437666D02*
X103634571Y-33104333D01*
X104158380Y-32961476D02*
X104158380Y-33437666D01*
X103158380Y-33437666D01*
X103158380Y-32961476D01*
X103158380Y-32675761D02*
X103158380Y-32104333D01*
X104158380Y-32390047D02*
X103158380Y-32390047D01*
X99078380Y-34326476D02*
X98602190Y-34659809D01*
X99078380Y-34897904D02*
X98078380Y-34897904D01*
X98078380Y-34516952D01*
X98126000Y-34421714D01*
X98173619Y-34374095D01*
X98268857Y-34326476D01*
X98411714Y-34326476D01*
X98506952Y-34374095D01*
X98554571Y-34421714D01*
X98602190Y-34516952D01*
X98602190Y-34897904D01*
X98792666Y-33945523D02*
X98792666Y-33469333D01*
X99078380Y-34040761D02*
X98078380Y-33707428D01*
X99078380Y-33374095D01*
X98078380Y-33136000D02*
X99078380Y-32897904D01*
X98364095Y-32707428D01*
X99078380Y-32516952D01*
X98078380Y-32278857D01*
X105746000Y-44240404D02*
X105698380Y-44335642D01*
X105698380Y-44478500D01*
X105746000Y-44621357D01*
X105841238Y-44716595D01*
X105936476Y-44764214D01*
X106126952Y-44811833D01*
X106269809Y-44811833D01*
X106460285Y-44764214D01*
X106555523Y-44716595D01*
X106650761Y-44621357D01*
X106698380Y-44478500D01*
X106698380Y-44383261D01*
X106650761Y-44240404D01*
X106603142Y-44192785D01*
X106269809Y-44192785D01*
X106269809Y-44383261D01*
X106698380Y-43764214D02*
X105698380Y-43764214D01*
X106698380Y-43192785D01*
X105698380Y-43192785D01*
X106698380Y-42716595D02*
X105698380Y-42716595D01*
X105698380Y-42478500D01*
X105746000Y-42335642D01*
X105841238Y-42240404D01*
X105936476Y-42192785D01*
X106126952Y-42145166D01*
X106269809Y-42145166D01*
X106460285Y-42192785D01*
X106555523Y-42240404D01*
X106650761Y-42335642D01*
X106698380Y-42478500D01*
X106698380Y-42716595D01*
X103206000Y-44557904D02*
X103158380Y-44653142D01*
X103158380Y-44796000D01*
X103206000Y-44938857D01*
X103301238Y-45034095D01*
X103396476Y-45081714D01*
X103586952Y-45129333D01*
X103729809Y-45129333D01*
X103920285Y-45081714D01*
X104015523Y-45034095D01*
X104110761Y-44938857D01*
X104158380Y-44796000D01*
X104158380Y-44700761D01*
X104110761Y-44557904D01*
X104063142Y-44510285D01*
X103729809Y-44510285D01*
X103729809Y-44700761D01*
X104158380Y-44081714D02*
X103158380Y-44081714D01*
X104158380Y-43510285D01*
X103158380Y-43510285D01*
X104158380Y-43034095D02*
X103158380Y-43034095D01*
X103158380Y-42796000D01*
X103206000Y-42653142D01*
X103301238Y-42557904D01*
X103396476Y-42510285D01*
X103586952Y-42462666D01*
X103729809Y-42462666D01*
X103920285Y-42510285D01*
X104015523Y-42557904D01*
X104110761Y-42653142D01*
X104158380Y-42796000D01*
X104158380Y-43034095D01*
X100666000Y-34397904D02*
X100618380Y-34493142D01*
X100618380Y-34636000D01*
X100666000Y-34778857D01*
X100761238Y-34874095D01*
X100856476Y-34921714D01*
X101046952Y-34969333D01*
X101189809Y-34969333D01*
X101380285Y-34921714D01*
X101475523Y-34874095D01*
X101570761Y-34778857D01*
X101618380Y-34636000D01*
X101618380Y-34540761D01*
X101570761Y-34397904D01*
X101523142Y-34350285D01*
X101189809Y-34350285D01*
X101189809Y-34540761D01*
X101618380Y-33921714D02*
X100618380Y-33921714D01*
X101618380Y-33350285D01*
X100618380Y-33350285D01*
X101618380Y-32874095D02*
X100618380Y-32874095D01*
X100618380Y-32636000D01*
X100666000Y-32493142D01*
X100761238Y-32397904D01*
X100856476Y-32350285D01*
X101046952Y-32302666D01*
X101189809Y-32302666D01*
X101380285Y-32350285D01*
X101475523Y-32397904D01*
X101570761Y-32493142D01*
X101618380Y-32636000D01*
X101618380Y-32874095D01*
%TO.C,MX6*%
X124264285Y-49328380D02*
X124264285Y-48328380D01*
X124597619Y-49042666D01*
X124930952Y-48328380D01*
X124930952Y-49328380D01*
X125311904Y-48328380D02*
X125978571Y-49328380D01*
X125978571Y-48328380D02*
X125311904Y-49328380D01*
X126788095Y-48328380D02*
X126597619Y-48328380D01*
X126502380Y-48376000D01*
X126454761Y-48423619D01*
X126359523Y-48566476D01*
X126311904Y-48756952D01*
X126311904Y-49137904D01*
X126359523Y-49233142D01*
X126407142Y-49280761D01*
X126502380Y-49328380D01*
X126692857Y-49328380D01*
X126788095Y-49280761D01*
X126835714Y-49233142D01*
X126883333Y-49137904D01*
X126883333Y-48899809D01*
X126835714Y-48804571D01*
X126788095Y-48756952D01*
X126692857Y-48709333D01*
X126502380Y-48709333D01*
X126407142Y-48756952D01*
X126359523Y-48804571D01*
X126311904Y-48899809D01*
%TO.C,R4*%
X144941333Y-26849380D02*
X144608000Y-26373190D01*
X144369904Y-26849380D02*
X144369904Y-25849380D01*
X144750857Y-25849380D01*
X144846095Y-25897000D01*
X144893714Y-25944619D01*
X144941333Y-26039857D01*
X144941333Y-26182714D01*
X144893714Y-26277952D01*
X144846095Y-26325571D01*
X144750857Y-26373190D01*
X144369904Y-26373190D01*
X145798476Y-26182714D02*
X145798476Y-26849380D01*
X145560380Y-25801761D02*
X145322285Y-26516047D01*
X145941333Y-26516047D01*
%TO.C,SW1*%
X157496666Y-30864761D02*
X157639523Y-30912380D01*
X157877619Y-30912380D01*
X157972857Y-30864761D01*
X158020476Y-30817142D01*
X158068095Y-30721904D01*
X158068095Y-30626666D01*
X158020476Y-30531428D01*
X157972857Y-30483809D01*
X157877619Y-30436190D01*
X157687142Y-30388571D01*
X157591904Y-30340952D01*
X157544285Y-30293333D01*
X157496666Y-30198095D01*
X157496666Y-30102857D01*
X157544285Y-30007619D01*
X157591904Y-29960000D01*
X157687142Y-29912380D01*
X157925238Y-29912380D01*
X158068095Y-29960000D01*
X158401428Y-29912380D02*
X158639523Y-30912380D01*
X158830000Y-30198095D01*
X159020476Y-30912380D01*
X159258571Y-29912380D01*
X160163333Y-30912380D02*
X159591904Y-30912380D01*
X159877619Y-30912380D02*
X159877619Y-29912380D01*
X159782380Y-30055238D01*
X159687142Y-30150476D01*
X159591904Y-30198095D01*
%TO.C,REF\u002A\u002A*%
X171206666Y-31167380D02*
X170873333Y-30691190D01*
X170635238Y-31167380D02*
X170635238Y-30167380D01*
X171016190Y-30167380D01*
X171111428Y-30215000D01*
X171159047Y-30262619D01*
X171206666Y-30357857D01*
X171206666Y-30500714D01*
X171159047Y-30595952D01*
X171111428Y-30643571D01*
X171016190Y-30691190D01*
X170635238Y-30691190D01*
X171635238Y-30643571D02*
X171968571Y-30643571D01*
X172111428Y-31167380D02*
X171635238Y-31167380D01*
X171635238Y-30167380D01*
X172111428Y-30167380D01*
X172873333Y-30643571D02*
X172540000Y-30643571D01*
X172540000Y-31167380D02*
X172540000Y-30167380D01*
X173016190Y-30167380D01*
X173540000Y-30167380D02*
X173540000Y-30405476D01*
X173301904Y-30310238D02*
X173540000Y-30405476D01*
X173778095Y-30310238D01*
X173397142Y-30595952D02*
X173540000Y-30405476D01*
X173682857Y-30595952D01*
X174301904Y-30167380D02*
X174301904Y-30405476D01*
X174063809Y-30310238D02*
X174301904Y-30405476D01*
X174540000Y-30310238D01*
X174159047Y-30595952D02*
X174301904Y-30405476D01*
X174444761Y-30595952D01*
X101991666Y-26722380D02*
X101658333Y-26246190D01*
X101420238Y-26722380D02*
X101420238Y-25722380D01*
X101801190Y-25722380D01*
X101896428Y-25770000D01*
X101944047Y-25817619D01*
X101991666Y-25912857D01*
X101991666Y-26055714D01*
X101944047Y-26150952D01*
X101896428Y-26198571D01*
X101801190Y-26246190D01*
X101420238Y-26246190D01*
X102420238Y-26198571D02*
X102753571Y-26198571D01*
X102896428Y-26722380D02*
X102420238Y-26722380D01*
X102420238Y-25722380D01*
X102896428Y-25722380D01*
X103658333Y-26198571D02*
X103325000Y-26198571D01*
X103325000Y-26722380D02*
X103325000Y-25722380D01*
X103801190Y-25722380D01*
X104325000Y-25722380D02*
X104325000Y-25960476D01*
X104086904Y-25865238D02*
X104325000Y-25960476D01*
X104563095Y-25865238D01*
X104182142Y-26150952D02*
X104325000Y-25960476D01*
X104467857Y-26150952D01*
X105086904Y-25722380D02*
X105086904Y-25960476D01*
X104848809Y-25865238D02*
X105086904Y-25960476D01*
X105325000Y-25865238D01*
X104944047Y-26150952D02*
X105086904Y-25960476D01*
X105229761Y-26150952D01*
X96276666Y-138092380D02*
X95943333Y-137616190D01*
X95705238Y-138092380D02*
X95705238Y-137092380D01*
X96086190Y-137092380D01*
X96181428Y-137140000D01*
X96229047Y-137187619D01*
X96276666Y-137282857D01*
X96276666Y-137425714D01*
X96229047Y-137520952D01*
X96181428Y-137568571D01*
X96086190Y-137616190D01*
X95705238Y-137616190D01*
X96705238Y-137568571D02*
X97038571Y-137568571D01*
X97181428Y-138092380D02*
X96705238Y-138092380D01*
X96705238Y-137092380D01*
X97181428Y-137092380D01*
X97943333Y-137568571D02*
X97610000Y-137568571D01*
X97610000Y-138092380D02*
X97610000Y-137092380D01*
X98086190Y-137092380D01*
X98610000Y-137092380D02*
X98610000Y-137330476D01*
X98371904Y-137235238D02*
X98610000Y-137330476D01*
X98848095Y-137235238D01*
X98467142Y-137520952D02*
X98610000Y-137330476D01*
X98752857Y-137520952D01*
X99371904Y-137092380D02*
X99371904Y-137330476D01*
X99133809Y-137235238D02*
X99371904Y-137330476D01*
X99610000Y-137235238D01*
X99229047Y-137520952D02*
X99371904Y-137330476D01*
X99514761Y-137520952D01*
X166126666Y-139752380D02*
X165793333Y-139276190D01*
X165555238Y-139752380D02*
X165555238Y-138752380D01*
X165936190Y-138752380D01*
X166031428Y-138800000D01*
X166079047Y-138847619D01*
X166126666Y-138942857D01*
X166126666Y-139085714D01*
X166079047Y-139180952D01*
X166031428Y-139228571D01*
X165936190Y-139276190D01*
X165555238Y-139276190D01*
X166555238Y-139228571D02*
X166888571Y-139228571D01*
X167031428Y-139752380D02*
X166555238Y-139752380D01*
X166555238Y-138752380D01*
X167031428Y-138752380D01*
X167793333Y-139228571D02*
X167460000Y-139228571D01*
X167460000Y-139752380D02*
X167460000Y-138752380D01*
X167936190Y-138752380D01*
X168460000Y-138752380D02*
X168460000Y-138990476D01*
X168221904Y-138895238D02*
X168460000Y-138990476D01*
X168698095Y-138895238D01*
X168317142Y-139180952D02*
X168460000Y-138990476D01*
X168602857Y-139180952D01*
X169221904Y-138752380D02*
X169221904Y-138990476D01*
X168983809Y-138895238D02*
X169221904Y-138990476D01*
X169460000Y-138895238D01*
X169079047Y-139180952D02*
X169221904Y-138990476D01*
X169364761Y-139180952D01*
%TO.C,MX2*%
X105214285Y-68378380D02*
X105214285Y-67378380D01*
X105547619Y-68092666D01*
X105880952Y-67378380D01*
X105880952Y-68378380D01*
X106261904Y-67378380D02*
X106928571Y-68378380D01*
X106928571Y-67378380D02*
X106261904Y-68378380D01*
X107261904Y-67473619D02*
X107309523Y-67426000D01*
X107404761Y-67378380D01*
X107642857Y-67378380D01*
X107738095Y-67426000D01*
X107785714Y-67473619D01*
X107833333Y-67568857D01*
X107833333Y-67664095D01*
X107785714Y-67806952D01*
X107214285Y-68378380D01*
X107833333Y-68378380D01*
%TO.C,D20*%
X133835314Y-25096780D02*
X133835314Y-24096780D01*
X134073409Y-24096780D01*
X134216266Y-24144400D01*
X134311504Y-24239638D01*
X134359123Y-24334876D01*
X134406742Y-24525352D01*
X134406742Y-24668209D01*
X134359123Y-24858685D01*
X134311504Y-24953923D01*
X134216266Y-25049161D01*
X134073409Y-25096780D01*
X133835314Y-25096780D01*
X134787695Y-24192019D02*
X134835314Y-24144400D01*
X134930552Y-24096780D01*
X135168647Y-24096780D01*
X135263885Y-24144400D01*
X135311504Y-24192019D01*
X135359123Y-24287257D01*
X135359123Y-24382495D01*
X135311504Y-24525352D01*
X134740076Y-25096780D01*
X135359123Y-25096780D01*
X135978171Y-24096780D02*
X136073409Y-24096780D01*
X136168647Y-24144400D01*
X136216266Y-24192019D01*
X136263885Y-24287257D01*
X136311504Y-24477733D01*
X136311504Y-24715828D01*
X136263885Y-24906304D01*
X136216266Y-25001542D01*
X136168647Y-25049161D01*
X136073409Y-25096780D01*
X135978171Y-25096780D01*
X135882933Y-25049161D01*
X135835314Y-25001542D01*
X135787695Y-24906304D01*
X135740076Y-24715828D01*
X135740076Y-24477733D01*
X135787695Y-24287257D01*
X135835314Y-24192019D01*
X135882933Y-24144400D01*
X135978171Y-24096780D01*
%TO.C,D21*%
X129314114Y-25096780D02*
X129314114Y-24096780D01*
X129552209Y-24096780D01*
X129695066Y-24144400D01*
X129790304Y-24239638D01*
X129837923Y-24334876D01*
X129885542Y-24525352D01*
X129885542Y-24668209D01*
X129837923Y-24858685D01*
X129790304Y-24953923D01*
X129695066Y-25049161D01*
X129552209Y-25096780D01*
X129314114Y-25096780D01*
X130266495Y-24192019D02*
X130314114Y-24144400D01*
X130409352Y-24096780D01*
X130647447Y-24096780D01*
X130742685Y-24144400D01*
X130790304Y-24192019D01*
X130837923Y-24287257D01*
X130837923Y-24382495D01*
X130790304Y-24525352D01*
X130218876Y-25096780D01*
X130837923Y-25096780D01*
X131790304Y-25096780D02*
X131218876Y-25096780D01*
X131504590Y-25096780D02*
X131504590Y-24096780D01*
X131409352Y-24239638D01*
X131314114Y-24334876D01*
X131218876Y-24382495D01*
%TO.C,R5*%
X144941333Y-29008380D02*
X144608000Y-28532190D01*
X144369904Y-29008380D02*
X144369904Y-28008380D01*
X144750857Y-28008380D01*
X144846095Y-28056000D01*
X144893714Y-28103619D01*
X144941333Y-28198857D01*
X144941333Y-28341714D01*
X144893714Y-28436952D01*
X144846095Y-28484571D01*
X144750857Y-28532190D01*
X144369904Y-28532190D01*
X145846095Y-28008380D02*
X145369904Y-28008380D01*
X145322285Y-28484571D01*
X145369904Y-28436952D01*
X145465142Y-28389333D01*
X145703238Y-28389333D01*
X145798476Y-28436952D01*
X145846095Y-28484571D01*
X145893714Y-28579809D01*
X145893714Y-28817904D01*
X145846095Y-28913142D01*
X145798476Y-28960761D01*
X145703238Y-29008380D01*
X145465142Y-29008380D01*
X145369904Y-28960761D01*
X145322285Y-28913142D01*
%TO.C,R3*%
X132622333Y-40692380D02*
X132289000Y-40216190D01*
X132050904Y-40692380D02*
X132050904Y-39692380D01*
X132431857Y-39692380D01*
X132527095Y-39740000D01*
X132574714Y-39787619D01*
X132622333Y-39882857D01*
X132622333Y-40025714D01*
X132574714Y-40120952D01*
X132527095Y-40168571D01*
X132431857Y-40216190D01*
X132050904Y-40216190D01*
X132955666Y-39692380D02*
X133574714Y-39692380D01*
X133241380Y-40073333D01*
X133384238Y-40073333D01*
X133479476Y-40120952D01*
X133527095Y-40168571D01*
X133574714Y-40263809D01*
X133574714Y-40501904D01*
X133527095Y-40597142D01*
X133479476Y-40644761D01*
X133384238Y-40692380D01*
X133098523Y-40692380D01*
X133003285Y-40644761D01*
X132955666Y-40597142D01*
%TO.C,D19*%
X131447714Y-34850380D02*
X131447714Y-33850380D01*
X131685809Y-33850380D01*
X131828666Y-33898000D01*
X131923904Y-33993238D01*
X131971523Y-34088476D01*
X132019142Y-34278952D01*
X132019142Y-34421809D01*
X131971523Y-34612285D01*
X131923904Y-34707523D01*
X131828666Y-34802761D01*
X131685809Y-34850380D01*
X131447714Y-34850380D01*
X132971523Y-34850380D02*
X132400095Y-34850380D01*
X132685809Y-34850380D02*
X132685809Y-33850380D01*
X132590571Y-33993238D01*
X132495333Y-34088476D01*
X132400095Y-34136095D01*
X133447714Y-34850380D02*
X133638190Y-34850380D01*
X133733428Y-34802761D01*
X133781047Y-34755142D01*
X133876285Y-34612285D01*
X133923904Y-34421809D01*
X133923904Y-34040857D01*
X133876285Y-33945619D01*
X133828666Y-33898000D01*
X133733428Y-33850380D01*
X133542952Y-33850380D01*
X133447714Y-33898000D01*
X133400095Y-33945619D01*
X133352476Y-34040857D01*
X133352476Y-34278952D01*
X133400095Y-34374190D01*
X133447714Y-34421809D01*
X133542952Y-34469428D01*
X133733428Y-34469428D01*
X133828666Y-34421809D01*
X133876285Y-34374190D01*
X133923904Y-34278952D01*
%TO.C,R2*%
X163483333Y-29423381D02*
X163150000Y-28947191D01*
X162911904Y-29423381D02*
X162911904Y-28423381D01*
X163292857Y-28423381D01*
X163388095Y-28471001D01*
X163435714Y-28518620D01*
X163483333Y-28613858D01*
X163483333Y-28756715D01*
X163435714Y-28851953D01*
X163388095Y-28899572D01*
X163292857Y-28947191D01*
X162911904Y-28947191D01*
X163864285Y-28518620D02*
X163911904Y-28471001D01*
X164007142Y-28423381D01*
X164245238Y-28423381D01*
X164340476Y-28471001D01*
X164388095Y-28518620D01*
X164435714Y-28613858D01*
X164435714Y-28709096D01*
X164388095Y-28851953D01*
X163816666Y-29423381D01*
X164435714Y-29423381D01*
%TO.C,R1*%
X163483333Y-26586382D02*
X163150000Y-26110192D01*
X162911904Y-26586382D02*
X162911904Y-25586382D01*
X163292857Y-25586382D01*
X163388095Y-25634002D01*
X163435714Y-25681621D01*
X163483333Y-25776859D01*
X163483333Y-25919716D01*
X163435714Y-26014954D01*
X163388095Y-26062573D01*
X163292857Y-26110192D01*
X162911904Y-26110192D01*
X164435714Y-26586382D02*
X163864285Y-26586382D01*
X164150000Y-26586382D02*
X164150000Y-25586382D01*
X164054761Y-25729240D01*
X163959523Y-25824478D01*
X163864285Y-25872097D01*
%TO.C,MX8*%
X124264285Y-87428380D02*
X124264285Y-86428380D01*
X124597619Y-87142666D01*
X124930952Y-86428380D01*
X124930952Y-87428380D01*
X125311904Y-86428380D02*
X125978571Y-87428380D01*
X125978571Y-86428380D02*
X125311904Y-87428380D01*
X126502380Y-86856952D02*
X126407142Y-86809333D01*
X126359523Y-86761714D01*
X126311904Y-86666476D01*
X126311904Y-86618857D01*
X126359523Y-86523619D01*
X126407142Y-86476000D01*
X126502380Y-86428380D01*
X126692857Y-86428380D01*
X126788095Y-86476000D01*
X126835714Y-86523619D01*
X126883333Y-86618857D01*
X126883333Y-86666476D01*
X126835714Y-86761714D01*
X126788095Y-86809333D01*
X126692857Y-86856952D01*
X126502380Y-86856952D01*
X126407142Y-86904571D01*
X126359523Y-86952190D01*
X126311904Y-87047428D01*
X126311904Y-87237904D01*
X126359523Y-87333142D01*
X126407142Y-87380761D01*
X126502380Y-87428380D01*
X126692857Y-87428380D01*
X126788095Y-87380761D01*
X126835714Y-87333142D01*
X126883333Y-87237904D01*
X126883333Y-87047428D01*
X126835714Y-86952190D01*
X126788095Y-86904571D01*
X126692857Y-86856952D01*
%TO.C,MX11*%
X142838095Y-68378380D02*
X142838095Y-67378380D01*
X143171428Y-68092666D01*
X143504761Y-67378380D01*
X143504761Y-68378380D01*
X143885714Y-67378380D02*
X144552380Y-68378380D01*
X144552380Y-67378380D02*
X143885714Y-68378380D01*
X145457142Y-68378380D02*
X144885714Y-68378380D01*
X145171428Y-68378380D02*
X145171428Y-67378380D01*
X145076190Y-67521238D01*
X144980952Y-67616476D01*
X144885714Y-67664095D01*
X146409523Y-68378380D02*
X145838095Y-68378380D01*
X146123809Y-68378380D02*
X146123809Y-67378380D01*
X146028571Y-67521238D01*
X145933333Y-67616476D01*
X145838095Y-67664095D01*
%TO.C,MX12*%
X142838095Y-87428380D02*
X142838095Y-86428380D01*
X143171428Y-87142666D01*
X143504761Y-86428380D01*
X143504761Y-87428380D01*
X143885714Y-86428380D02*
X144552380Y-87428380D01*
X144552380Y-86428380D02*
X143885714Y-87428380D01*
X145457142Y-87428380D02*
X144885714Y-87428380D01*
X145171428Y-87428380D02*
X145171428Y-86428380D01*
X145076190Y-86571238D01*
X144980952Y-86666476D01*
X144885714Y-86714095D01*
X145838095Y-86523619D02*
X145885714Y-86476000D01*
X145980952Y-86428380D01*
X146219047Y-86428380D01*
X146314285Y-86476000D01*
X146361904Y-86523619D01*
X146409523Y-86618857D01*
X146409523Y-86714095D01*
X146361904Y-86856952D01*
X145790476Y-87428380D01*
X146409523Y-87428380D01*
%TO.C,MX9*%
X124264285Y-106478380D02*
X124264285Y-105478380D01*
X124597619Y-106192666D01*
X124930952Y-105478380D01*
X124930952Y-106478380D01*
X125311904Y-105478380D02*
X125978571Y-106478380D01*
X125978571Y-105478380D02*
X125311904Y-106478380D01*
X126407142Y-106478380D02*
X126597619Y-106478380D01*
X126692857Y-106430761D01*
X126740476Y-106383142D01*
X126835714Y-106240285D01*
X126883333Y-106049809D01*
X126883333Y-105668857D01*
X126835714Y-105573619D01*
X126788095Y-105526000D01*
X126692857Y-105478380D01*
X126502380Y-105478380D01*
X126407142Y-105526000D01*
X126359523Y-105573619D01*
X126311904Y-105668857D01*
X126311904Y-105906952D01*
X126359523Y-106002190D01*
X126407142Y-106049809D01*
X126502380Y-106097428D01*
X126692857Y-106097428D01*
X126788095Y-106049809D01*
X126835714Y-106002190D01*
X126883333Y-105906952D01*
%TO.C,MX13*%
X142838095Y-106478380D02*
X142838095Y-105478380D01*
X143171428Y-106192666D01*
X143504761Y-105478380D01*
X143504761Y-106478380D01*
X143885714Y-105478380D02*
X144552380Y-106478380D01*
X144552380Y-105478380D02*
X143885714Y-106478380D01*
X145457142Y-106478380D02*
X144885714Y-106478380D01*
X145171428Y-106478380D02*
X145171428Y-105478380D01*
X145076190Y-105621238D01*
X144980952Y-105716476D01*
X144885714Y-105764095D01*
X145790476Y-105478380D02*
X146409523Y-105478380D01*
X146076190Y-105859333D01*
X146219047Y-105859333D01*
X146314285Y-105906952D01*
X146361904Y-105954571D01*
X146409523Y-106049809D01*
X146409523Y-106287904D01*
X146361904Y-106383142D01*
X146314285Y-106430761D01*
X146219047Y-106478380D01*
X145933333Y-106478380D01*
X145838095Y-106430761D01*
X145790476Y-106383142D01*
%TO.C,MX7*%
X124264285Y-68378380D02*
X124264285Y-67378380D01*
X124597619Y-68092666D01*
X124930952Y-67378380D01*
X124930952Y-68378380D01*
X125311904Y-67378380D02*
X125978571Y-68378380D01*
X125978571Y-67378380D02*
X125311904Y-68378380D01*
X126264285Y-67378380D02*
X126930952Y-67378380D01*
X126502380Y-68378380D01*
%TO.C,MX10*%
X142838095Y-49328380D02*
X142838095Y-48328380D01*
X143171428Y-49042666D01*
X143504761Y-48328380D01*
X143504761Y-49328380D01*
X143885714Y-48328380D02*
X144552380Y-49328380D01*
X144552380Y-48328380D02*
X143885714Y-49328380D01*
X145457142Y-49328380D02*
X144885714Y-49328380D01*
X145171428Y-49328380D02*
X145171428Y-48328380D01*
X145076190Y-48471238D01*
X144980952Y-48566476D01*
X144885714Y-48614095D01*
X146076190Y-48328380D02*
X146171428Y-48328380D01*
X146266666Y-48376000D01*
X146314285Y-48423619D01*
X146361904Y-48518857D01*
X146409523Y-48709333D01*
X146409523Y-48947428D01*
X146361904Y-49137904D01*
X146314285Y-49233142D01*
X146266666Y-49280761D01*
X146171428Y-49328380D01*
X146076190Y-49328380D01*
X145980952Y-49280761D01*
X145933333Y-49233142D01*
X145885714Y-49137904D01*
X145838095Y-48947428D01*
X145838095Y-48709333D01*
X145885714Y-48518857D01*
X145933333Y-48423619D01*
X145980952Y-48376000D01*
X146076190Y-48328380D01*
%TO.C,MX14*%
X142838095Y-125528380D02*
X142838095Y-124528380D01*
X143171428Y-125242666D01*
X143504761Y-124528380D01*
X143504761Y-125528380D01*
X143885714Y-124528380D02*
X144552380Y-125528380D01*
X144552380Y-124528380D02*
X143885714Y-125528380D01*
X145457142Y-125528380D02*
X144885714Y-125528380D01*
X145171428Y-125528380D02*
X145171428Y-124528380D01*
X145076190Y-124671238D01*
X144980952Y-124766476D01*
X144885714Y-124814095D01*
X146314285Y-124861714D02*
X146314285Y-125528380D01*
X146076190Y-124480761D02*
X145838095Y-125195047D01*
X146457142Y-125195047D01*
%TO.C,MX16*%
X161888095Y-77903380D02*
X161888095Y-76903380D01*
X162221428Y-77617666D01*
X162554761Y-76903380D01*
X162554761Y-77903380D01*
X162935714Y-76903380D02*
X163602380Y-77903380D01*
X163602380Y-76903380D02*
X162935714Y-77903380D01*
X164507142Y-77903380D02*
X163935714Y-77903380D01*
X164221428Y-77903380D02*
X164221428Y-76903380D01*
X164126190Y-77046238D01*
X164030952Y-77141476D01*
X163935714Y-77189095D01*
X165364285Y-76903380D02*
X165173809Y-76903380D01*
X165078571Y-76951000D01*
X165030952Y-76998619D01*
X164935714Y-77141476D01*
X164888095Y-77331952D01*
X164888095Y-77712904D01*
X164935714Y-77808142D01*
X164983333Y-77855761D01*
X165078571Y-77903380D01*
X165269047Y-77903380D01*
X165364285Y-77855761D01*
X165411904Y-77808142D01*
X165459523Y-77712904D01*
X165459523Y-77474809D01*
X165411904Y-77379571D01*
X165364285Y-77331952D01*
X165269047Y-77284333D01*
X165078571Y-77284333D01*
X164983333Y-77331952D01*
X164935714Y-77379571D01*
X164888095Y-77474809D01*
%TO.C,MX3*%
X105214285Y-87428380D02*
X105214285Y-86428380D01*
X105547619Y-87142666D01*
X105880952Y-86428380D01*
X105880952Y-87428380D01*
X106261904Y-86428380D02*
X106928571Y-87428380D01*
X106928571Y-86428380D02*
X106261904Y-87428380D01*
X107214285Y-86428380D02*
X107833333Y-86428380D01*
X107500000Y-86809333D01*
X107642857Y-86809333D01*
X107738095Y-86856952D01*
X107785714Y-86904571D01*
X107833333Y-86999809D01*
X107833333Y-87237904D01*
X107785714Y-87333142D01*
X107738095Y-87380761D01*
X107642857Y-87428380D01*
X107357142Y-87428380D01*
X107261904Y-87380761D01*
X107214285Y-87333142D01*
%TO.C,MX4*%
X105214285Y-106478380D02*
X105214285Y-105478380D01*
X105547619Y-106192666D01*
X105880952Y-105478380D01*
X105880952Y-106478380D01*
X106261904Y-105478380D02*
X106928571Y-106478380D01*
X106928571Y-105478380D02*
X106261904Y-106478380D01*
X107738095Y-105811714D02*
X107738095Y-106478380D01*
X107500000Y-105430761D02*
X107261904Y-106145047D01*
X107880952Y-106145047D01*
%TO.C,MX17*%
X161888095Y-116003380D02*
X161888095Y-115003380D01*
X162221428Y-115717666D01*
X162554761Y-115003380D01*
X162554761Y-116003380D01*
X162935714Y-115003380D02*
X163602380Y-116003380D01*
X163602380Y-115003380D02*
X162935714Y-116003380D01*
X164507142Y-116003380D02*
X163935714Y-116003380D01*
X164221428Y-116003380D02*
X164221428Y-115003380D01*
X164126190Y-115146238D01*
X164030952Y-115241476D01*
X163935714Y-115289095D01*
X164840476Y-115003380D02*
X165507142Y-115003380D01*
X165078571Y-116003380D01*
%TO.C,MX5*%
X114739285Y-125528380D02*
X114739285Y-124528380D01*
X115072619Y-125242666D01*
X115405952Y-124528380D01*
X115405952Y-125528380D01*
X115786904Y-124528380D02*
X116453571Y-125528380D01*
X116453571Y-124528380D02*
X115786904Y-125528380D01*
X117310714Y-124528380D02*
X116834523Y-124528380D01*
X116786904Y-125004571D01*
X116834523Y-124956952D01*
X116929761Y-124909333D01*
X117167857Y-124909333D01*
X117263095Y-124956952D01*
X117310714Y-125004571D01*
X117358333Y-125099809D01*
X117358333Y-125337904D01*
X117310714Y-125433142D01*
X117263095Y-125480761D01*
X117167857Y-125528380D01*
X116929761Y-125528380D01*
X116834523Y-125480761D01*
X116786904Y-125433142D01*
%TO.C,MX15*%
X161888095Y-49328380D02*
X161888095Y-48328380D01*
X162221428Y-49042666D01*
X162554761Y-48328380D01*
X162554761Y-49328380D01*
X162935714Y-48328380D02*
X163602380Y-49328380D01*
X163602380Y-48328380D02*
X162935714Y-49328380D01*
X164507142Y-49328380D02*
X163935714Y-49328380D01*
X164221428Y-49328380D02*
X164221428Y-48328380D01*
X164126190Y-48471238D01*
X164030952Y-48566476D01*
X163935714Y-48614095D01*
X165411904Y-48328380D02*
X164935714Y-48328380D01*
X164888095Y-48804571D01*
X164935714Y-48756952D01*
X165030952Y-48709333D01*
X165269047Y-48709333D01*
X165364285Y-48756952D01*
X165411904Y-48804571D01*
X165459523Y-48899809D01*
X165459523Y-49137904D01*
X165411904Y-49233142D01*
X165364285Y-49280761D01*
X165269047Y-49328380D01*
X165030952Y-49328380D01*
X164935714Y-49280761D01*
X164888095Y-49233142D01*
%TD*%
M02*
