  0
SECTION
  2
HEADER
  9
$ANGBASE
  50
0.0
  9
$ANGDIR
  70
1
  9
$MEASUREMENT
  70
0
  0
ENDSEC
  0
SECTION
  2
TABLES
  0
TABLE
  2
LTYPE
  70
4
  0
LTYPE
  5
40F
  2
CONTINUOUS
  70
0
  3
Solid line
  72
65
  73
0
  40
0.0
  0
LTYPE
  5
410
  2
DASHDOT
 70
0
  3
Dash Dot ____ _ ____ _
 72
65
 73
4
 40
2.0
 49
1.25
 49
-0.25
 49
0.25
 49
-0.25
  0
LTYPE
  5
411
  2
DASHED
 70
0
  3
Dashed __ __ __ __ __
 72
65
 73
2
 40
0.75
 49
0.5
 49
-0.25
  0
LTYPE
  5
43B
  2
DOTTED
 70
0
  3
Dotted .  .  .  .
 72
65
 73
2
 40
0.2
 49
0.0
 49
-0.2
  0
ENDTAB
  0
TABLE
  2
STYLE
  70
4
  0
STYLE
  2
KICAD
  70
0
  40
0
  41
1
  42
1
  50
0
  71
0
  3
isocp.shx
  0
STYLE
  2
KICADB
  70
0
  40
0
  41
1
  42
1
  50
0
  71
0
  3
isocp.shx
  0
STYLE
  2
KICADI
  70
0
  40
0
  41
1
  42
1
  50
15
  71
0
  3
isocp.shx
  0
STYLE
  2
KICADBI
  70
0
  40
0
  41
1
  42
1
  50
15
  71
0
  3
isocp.shx
  0
ENDTAB
  0
TABLE
  2
LAYER
  70
1
  0
LAYER
  2
BLACK
  70
0
  62
7
  6
CONTINUOUS
  0
ENDTAB
  0
ENDSEC
  0
SECTION
  2
ENTITIES
0
LINE
8
BLACK
6
CONTINUOUS
10
6.85235
20
-0.906839
11
6.8527
21
-0.906913
0
LINE
8
BLACK
6
CONTINUOUS
10
6.8527
20
-0.906913
11
6.85305
21
-0.906983
0
LINE
8
BLACK
6
CONTINUOUS
10
6.85305
20
-0.906983
11
6.86776
21
-0.911424
0
LINE
8
BLACK
6
CONTINUOUS
10
6.86776
20
-0.911424
11
6.86776
21
-0.911424
0
LINE
8
BLACK
6
CONTINUOUS
10
6.86776
20
-0.911424
11
6.86781
21
-0.911441
0
LINE
8
BLACK
6
CONTINUOUS
10
6.86781
20
-0.911441
11
6.86814
21
-0.911581
0
LINE
8
BLACK
6
CONTINUOUS
10
6.86814
20
-0.911581
11
6.86847
21
-0.911717
0
LINE
8
BLACK
6
CONTINUOUS
10
6.86847
20
-0.911717
11
6.88204
21
-0.918932
0
LINE
8
BLACK
6
CONTINUOUS
10
6.88204
20
-0.918932
11
6.88204
21
-0.918932
0
LINE
8
BLACK
6
CONTINUOUS
10
6.88204
20
-0.918932
11
6.88204
21
-0.918932
0
LINE
8
BLACK
6
CONTINUOUS
10
6.88204
20
-0.918932
11
6.88209
21
-0.918958
0
LINE
8
BLACK
6
CONTINUOUS
10
6.88209
20
-0.918958
11
6.88238
21
-0.919159
0
LINE
8
BLACK
6
CONTINUOUS
10
6.88238
20
-0.919159
11
6.88268
21
-0.919357
0
LINE
8
BLACK
6
CONTINUOUS
10
6.88268
20
-0.919357
11
6.89459
21
-0.929069
0
LINE
8
BLACK
6
CONTINUOUS
10
6.89459
20
-0.929069
11
6.89463
21
-0.929104
0
LINE
8
BLACK
6
CONTINUOUS
10
6.89463
20
-0.929104
11
6.89488
21
-0.929359
0
LINE
8
BLACK
6
CONTINUOUS
10
6.89488
20
-0.929359
11
6.89513
21
-0.929611
0
LINE
8
BLACK
6
CONTINUOUS
10
6.89513
20
-0.929611
11
6.90493
21
-0.941452
0
LINE
8
BLACK
6
CONTINUOUS
10
6.90493
20
-0.941452
11
6.90496
21
-0.941494
0
LINE
8
BLACK
6
CONTINUOUS
10
6.90496
20
-0.941494
11
6.90516
21
-0.941792
0
LINE
8
BLACK
6
CONTINUOUS
10
6.90516
20
-0.941792
11
6.90536
21
-0.942089
0
LINE
8
BLACK
6
CONTINUOUS
10
6.90536
20
-0.942089
11
6.91267
21
-0.955607
0
LINE
8
BLACK
6
CONTINUOUS
10
6.91267
20
-0.955607
11
6.91269
21
-0.955655
0
LINE
8
BLACK
6
CONTINUOUS
10
6.91269
20
-0.955655
11
6.91283
21
-0.955986
0
LINE
8
BLACK
6
CONTINUOUS
10
6.91283
20
-0.955986
11
6.91296
21
-0.956315
0
LINE
8
BLACK
6
CONTINUOUS
10
6.91296
20
-0.956315
11
6.91751
21
-0.970995
0
LINE
8
BLACK
6
CONTINUOUS
10
6.91751
20
-0.970995
11
6.91752
21
-0.971048
0
LINE
8
BLACK
6
CONTINUOUS
10
6.91752
20
-0.971048
11
6.91759
21
-0.971399
0
LINE
8
BLACK
6
CONTINUOUS
10
6.91759
20
-0.971399
11
6.91766
21
-0.971748
0
LINE
8
BLACK
6
CONTINUOUS
10
6.91766
20
-0.971748
11
6.91927
21
-0.987031
0
LINE
8
BLACK
6
CONTINUOUS
10
6.91927
20
-0.987031
11
6.91928
21
-0.987086
0
LINE
8
BLACK
6
CONTINUOUS
10
6.91928
20
-0.987086
11
6.91927
21
-0.987257
0
LINE
8
BLACK
6
CONTINUOUS
10
6.91927
20
-0.987257
11
6.91929
21
-0.987429
0
LINE
8
BLACK
6
CONTINUOUS
10
6.91929
20
-0.987429
11
6.91929
21
-0.987792
0
LINE
8
BLACK
6
CONTINUOUS
10
6.91929
20
-0.987792
11
6.91929
21
-0.987799
0
LINE
8
BLACK
6
CONTINUOUS
10
6.91929
20
-0.987799
11
6.91929
21
-5.63011
0
LINE
8
BLACK
6
CONTINUOUS
10
6.91929
20
-5.63011
11
6.91927
21
-5.6303
0
LINE
8
BLACK
6
CONTINUOUS
10
6.91927
20
-5.6303
11
6.91927
21
-5.63031
0
LINE
8
BLACK
6
CONTINUOUS
10
6.91927
20
-5.63031
11
6.91777
21
-5.6456
0
LINE
8
BLACK
6
CONTINUOUS
10
6.91777
20
-5.6456
11
6.91777
21
-5.64565
0
LINE
8
BLACK
6
CONTINUOUS
10
6.91777
20
-5.64565
11
6.9177
21
-5.646
0
LINE
8
BLACK
6
CONTINUOUS
10
6.9177
20
-5.646
11
6.91763
21
-5.64635
0
LINE
8
BLACK
6
CONTINUOUS
10
6.91763
20
-5.64635
11
6.91318
21
-5.66106
0
LINE
8
BLACK
6
CONTINUOUS
10
6.91318
20
-5.66106
11
6.91317
21
-5.66112
0
LINE
8
BLACK
6
CONTINUOUS
10
6.91317
20
-5.66112
11
6.91303
21
-5.66145
0
LINE
8
BLACK
6
CONTINUOUS
10
6.91303
20
-5.66145
11
6.91289
21
-5.66178
0
LINE
8
BLACK
6
CONTINUOUS
10
6.91289
20
-5.66178
11
6.90568
21
-5.67534
0
LINE
8
BLACK
6
CONTINUOUS
10
6.90568
20
-5.67534
11
6.90568
21
-5.67534
0
LINE
8
BLACK
6
CONTINUOUS
10
6.90568
20
-5.67534
11
6.90568
21
-5.67534
0
LINE
8
BLACK
6
CONTINUOUS
10
6.90568
20
-5.67534
11
6.90565
21
-5.67539
0
LINE
8
BLACK
6
CONTINUOUS
10
6.90565
20
-5.67539
11
6.90545
21
-5.67569
0
LINE
8
BLACK
6
CONTINUOUS
10
6.90545
20
-5.67569
11
6.90525
21
-5.67598
0
LINE
8
BLACK
6
CONTINUOUS
10
6.90525
20
-5.67598
11
6.89554
21
-5.68789
0
LINE
8
BLACK
6
CONTINUOUS
10
6.89554
20
-5.68789
11
6.89554
21
-5.68789
0
LINE
8
BLACK
6
CONTINUOUS
10
6.89554
20
-5.68789
11
6.89554
21
-5.68789
0
LINE
8
BLACK
6
CONTINUOUS
10
6.89554
20
-5.68789
11
6.8955
21
-5.68793
0
LINE
8
BLACK
6
CONTINUOUS
10
6.8955
20
-5.68793
11
6.89525
21
-5.68818
0
LINE
8
BLACK
6
CONTINUOUS
10
6.89525
20
-5.68818
11
6.895
21
-5.68844
0
LINE
8
BLACK
6
CONTINUOUS
10
6.895
20
-5.68844
11
6.88316
21
-5.69823
0
LINE
8
BLACK
6
CONTINUOUS
10
6.88316
20
-5.69823
11
6.88316
21
-5.69823
0
LINE
8
BLACK
6
CONTINUOUS
10
6.88316
20
-5.69823
11
6.88316
21
-5.69823
0
LINE
8
BLACK
6
CONTINUOUS
10
6.88316
20
-5.69823
11
6.88311
21
-5.69827
0
LINE
8
BLACK
6
CONTINUOUS
10
6.88311
20
-5.69827
11
6.88282
21
-5.69846
0
LINE
8
BLACK
6
CONTINUOUS
10
6.88282
20
-5.69846
11
6.88252
21
-5.69866
0
LINE
8
BLACK
6
CONTINUOUS
10
6.88252
20
-5.69866
11
6.869
21
-5.70597
0
LINE
8
BLACK
6
CONTINUOUS
10
6.869
20
-5.70597
11
6.869
21
-5.70597
0
LINE
8
BLACK
6
CONTINUOUS
10
6.869
20
-5.70597
11
6.869
21
-5.70597
0
LINE
8
BLACK
6
CONTINUOUS
10
6.869
20
-5.70597
11
6.86895
21
-5.706
0
LINE
8
BLACK
6
CONTINUOUS
10
6.86895
20
-5.706
11
6.86862
21
-5.70613
0
LINE
8
BLACK
6
CONTINUOUS
10
6.86862
20
-5.70613
11
6.86829
21
-5.70627
0
LINE
8
BLACK
6
CONTINUOUS
10
6.86829
20
-5.70627
11
6.85361
21
-5.71081
0
LINE
8
BLACK
6
CONTINUOUS
10
6.85361
20
-5.71081
11
6.85356
21
-5.71083
0
LINE
8
BLACK
6
CONTINUOUS
10
6.85356
20
-5.71083
11
6.85321
21
-5.7109
0
LINE
8
BLACK
6
CONTINUOUS
10
6.85321
20
-5.7109
11
6.85286
21
-5.71097
0
LINE
8
BLACK
6
CONTINUOUS
10
6.85286
20
-5.71097
11
6.83758
21
-5.71257
0
LINE
8
BLACK
6
CONTINUOUS
10
6.83758
20
-5.71257
11
6.83752
21
-5.71258
0
LINE
8
BLACK
6
CONTINUOUS
10
6.83752
20
-5.71258
11
6.83735
21
-5.71258
0
LINE
8
BLACK
6
CONTINUOUS
10
6.83735
20
-5.71258
11
6.83718
21
-5.7126
0
LINE
8
BLACK
6
CONTINUOUS
10
6.83718
20
-5.7126
11
6.83682
21
-5.7126
0
LINE
8
BLACK
6
CONTINUOUS
10
6.83682
20
-5.7126
11
6.83681
21
-5.7126
0
LINE
8
BLACK
6
CONTINUOUS
10
6.83681
20
-5.7126
11
3.79902
21
-5.7126
0
LINE
8
BLACK
6
CONTINUOUS
10
3.79902
20
-5.7126
11
3.79883
21
-5.71258
0
LINE
8
BLACK
6
CONTINUOUS
10
3.79883
20
-5.71258
11
3.79883
21
-5.71258
0
LINE
8
BLACK
6
CONTINUOUS
10
3.79883
20
-5.71258
11
3.78353
21
-5.71108
0
LINE
8
BLACK
6
CONTINUOUS
10
3.78353
20
-5.71108
11
3.78353
21
-5.71108
0
LINE
8
BLACK
6
CONTINUOUS
10
3.78353
20
-5.71108
11
3.78348
21
-5.71107
0
LINE
8
BLACK
6
CONTINUOUS
10
3.78348
20
-5.71107
11
3.78313
21
-5.711
0
LINE
8
BLACK
6
CONTINUOUS
10
3.78313
20
-5.711
11
3.78278
21
-5.71093
0
LINE
8
BLACK
6
CONTINUOUS
10
3.78278
20
-5.71093
11
3.76807
21
-5.70649
0
LINE
8
BLACK
6
CONTINUOUS
10
3.76807
20
-5.70649
11
3.76807
21
-5.70649
0
LINE
8
BLACK
6
CONTINUOUS
10
3.76807
20
-5.70649
11
3.76802
21
-5.70647
0
LINE
8
BLACK
6
CONTINUOUS
10
3.76802
20
-5.70647
11
3.76769
21
-5.70633
0
LINE
8
BLACK
6
CONTINUOUS
10
3.76769
20
-5.70633
11
3.76736
21
-5.7062
0
LINE
8
BLACK
6
CONTINUOUS
10
3.76736
20
-5.7062
11
3.75379
21
-5.69898
0
LINE
8
BLACK
6
CONTINUOUS
10
3.75379
20
-5.69898
11
3.75379
21
-5.69898
0
LINE
8
BLACK
6
CONTINUOUS
10
3.75379
20
-5.69898
11
3.75379
21
-5.69898
0
LINE
8
BLACK
6
CONTINUOUS
10
3.75379
20
-5.69898
11
3.75374
21
-5.69896
0
LINE
8
BLACK
6
CONTINUOUS
10
3.75374
20
-5.69896
11
3.75345
21
-5.69875
0
LINE
8
BLACK
6
CONTINUOUS
10
3.75345
20
-5.69875
11
3.75315
21
-5.69856
0
LINE
8
BLACK
6
CONTINUOUS
10
3.75315
20
-5.69856
11
3.74124
21
-5.68884
0
LINE
8
BLACK
6
CONTINUOUS
10
3.74124
20
-5.68884
11
3.74124
21
-5.68884
0
LINE
8
BLACK
6
CONTINUOUS
10
3.74124
20
-5.68884
11
3.74124
21
-5.68884
0
LINE
8
BLACK
6
CONTINUOUS
10
3.74124
20
-5.68884
11
3.7412
21
-5.68881
0
LINE
8
BLACK
6
CONTINUOUS
10
3.7412
20
-5.68881
11
3.74095
21
-5.68855
0
LINE
8
BLACK
6
CONTINUOUS
10
3.74095
20
-5.68855
11
3.7407
21
-5.6883
0
LINE
8
BLACK
6
CONTINUOUS
10
3.7407
20
-5.6883
11
3.7309
21
-5.67646
0
LINE
8
BLACK
6
CONTINUOUS
10
3.7309
20
-5.67646
11
3.73087
21
-5.67642
0
LINE
8
BLACK
6
CONTINUOUS
10
3.73087
20
-5.67642
11
3.73067
21
-5.67612
0
LINE
8
BLACK
6
CONTINUOUS
10
3.73067
20
-5.67612
11
3.73047
21
-5.67582
0
LINE
8
BLACK
6
CONTINUOUS
10
3.73047
20
-5.67582
11
3.72316
21
-5.66231
0
LINE
8
BLACK
6
CONTINUOUS
10
3.72316
20
-5.66231
11
3.72316
21
-5.66231
0
LINE
8
BLACK
6
CONTINUOUS
10
3.72316
20
-5.66231
11
3.72316
21
-5.66231
0
LINE
8
BLACK
6
CONTINUOUS
10
3.72316
20
-5.66231
11
3.72314
21
-5.66226
0
LINE
8
BLACK
6
CONTINUOUS
10
3.72314
20
-5.66226
11
3.723
21
-5.66193
0
LINE
8
BLACK
6
CONTINUOUS
10
3.723
20
-5.66193
11
3.72286
21
-5.6616
0
LINE
8
BLACK
6
CONTINUOUS
10
3.72286
20
-5.6616
11
3.71832
21
-5.64692
0
LINE
8
BLACK
6
CONTINUOUS
10
3.71832
20
-5.64692
11
3.7183
21
-5.64687
0
LINE
8
BLACK
6
CONTINUOUS
10
3.7183
20
-5.64687
11
3.71824
21
-5.64651
0
LINE
8
BLACK
6
CONTINUOUS
10
3.71824
20
-5.64651
11
3.71817
21
-5.64617
0
LINE
8
BLACK
6
CONTINUOUS
10
3.71817
20
-5.64617
11
3.71656
21
-5.63088
0
LINE
8
BLACK
6
CONTINUOUS
10
3.71656
20
-5.63088
11
3.71655
21
-5.63083
0
LINE
8
BLACK
6
CONTINUOUS
10
3.71655
20
-5.63083
11
3.71655
21
-5.63066
0
LINE
8
BLACK
6
CONTINUOUS
10
3.71655
20
-5.63066
11
3.71654
21
-5.63048
0
LINE
8
BLACK
6
CONTINUOUS
10
3.71654
20
-5.63048
11
3.71654
21
-5.63012
0
LINE
8
BLACK
6
CONTINUOUS
10
3.71654
20
-5.63012
11
3.71654
21
-5.63011
0
LINE
8
BLACK
6
CONTINUOUS
10
3.71654
20
-5.63011
11
3.71654
21
-1.07264
0
LINE
8
BLACK
6
CONTINUOUS
10
3.71654
20
-1.07264
11
3.71654
21
-1.07264
0
LINE
8
BLACK
6
CONTINUOUS
10
3.71654
20
-1.07264
11
3.71654
21
-1.0128
0
LINE
8
BLACK
6
CONTINUOUS
10
3.71654
20
-1.0128
11
3.71654
21
-0.987799
0
LINE
8
BLACK
6
CONTINUOUS
10
3.71654
20
-0.987799
11
3.71655
21
-0.987609
0
LINE
8
BLACK
6
CONTINUOUS
10
3.71655
20
-0.987609
11
3.71655
21
-0.987608
0
LINE
8
BLACK
6
CONTINUOUS
10
3.71655
20
-0.987608
11
3.71805
21
-0.972314
0
LINE
8
BLACK
6
CONTINUOUS
10
3.71805
20
-0.972314
11
3.71806
21
-0.972259
0
LINE
8
BLACK
6
CONTINUOUS
10
3.71806
20
-0.972259
11
3.71813
21
-0.97191
0
LINE
8
BLACK
6
CONTINUOUS
10
3.71813
20
-0.97191
11
3.7182
21
-0.97156
0
LINE
8
BLACK
6
CONTINUOUS
10
3.7182
20
-0.97156
11
3.72264
21
-0.956849
0
LINE
8
BLACK
6
CONTINUOUS
10
3.72264
20
-0.956849
11
3.72266
21
-0.956796
0
LINE
8
BLACK
6
CONTINUOUS
10
3.72266
20
-0.956796
11
3.7228
21
-0.956469
0
LINE
8
BLACK
6
CONTINUOUS
10
3.7228
20
-0.956469
11
3.72294
21
-0.956138
0
LINE
8
BLACK
6
CONTINUOUS
10
3.72294
20
-0.956138
11
3.73015
21
-0.94257
0
LINE
8
BLACK
6
CONTINUOUS
10
3.73015
20
-0.94257
11
3.73015
21
-0.94257
0
LINE
8
BLACK
6
CONTINUOUS
10
3.73015
20
-0.94257
11
3.73015
21
-0.942569
0
LINE
8
BLACK
6
CONTINUOUS
10
3.73015
20
-0.942569
11
3.73018
21
-0.942521
0
LINE
8
BLACK
6
CONTINUOUS
10
3.73018
20
-0.942521
11
3.73038
21
-0.942227
0
LINE
8
BLACK
6
CONTINUOUS
10
3.73038
20
-0.942227
11
3.73058
21
-0.94193
0
LINE
8
BLACK
6
CONTINUOUS
10
3.73058
20
-0.94193
11
3.74029
21
-0.930021
0
LINE
8
BLACK
6
CONTINUOUS
10
3.74029
20
-0.930021
11
3.74032
21
-0.929979
0
LINE
8
BLACK
6
CONTINUOUS
10
3.74032
20
-0.929979
11
3.74058
21
-0.929729
0
LINE
8
BLACK
6
CONTINUOUS
10
3.74058
20
-0.929729
11
3.74083
21
-0.929476
0
LINE
8
BLACK
6
CONTINUOUS
10
3.74083
20
-0.929476
11
3.75267
21
-0.91968
0
LINE
8
BLACK
6
CONTINUOUS
10
3.75267
20
-0.91968
11
3.75271
21
-0.919645
0
LINE
8
BLACK
6
CONTINUOUS
10
3.75271
20
-0.919645
11
3.75301
21
-0.91945
0
LINE
8
BLACK
6
CONTINUOUS
10
3.75301
20
-0.91945
11
3.75331
21
-0.91925
0
LINE
8
BLACK
6
CONTINUOUS
10
3.75331
20
-0.91925
11
3.76683
21
-0.911941
0
LINE
8
BLACK
6
CONTINUOUS
10
3.76683
20
-0.911941
11
3.76688
21
-0.911916
0
LINE
8
BLACK
6
CONTINUOUS
10
3.76688
20
-0.911916
11
3.76721
21
-0.911782
0
LINE
8
BLACK
6
CONTINUOUS
10
3.76721
20
-0.911782
11
3.76754
21
-0.911644
0
LINE
8
BLACK
6
CONTINUOUS
10
3.76754
20
-0.911644
11
3.78222
21
-0.907099
0
LINE
8
BLACK
6
CONTINUOUS
10
3.78222
20
-0.907099
11
3.78227
21
-0.907083
0
LINE
8
BLACK
6
CONTINUOUS
10
3.78227
20
-0.907083
11
3.78262
21
-0.907016
0
LINE
8
BLACK
6
CONTINUOUS
10
3.78262
20
-0.907016
11
3.78297
21
-0.906945
0
LINE
8
BLACK
6
CONTINUOUS
10
3.78297
20
-0.906945
11
3.79825
21
-0.905338
0
LINE
8
BLACK
6
CONTINUOUS
10
3.79825
20
-0.905338
11
3.79831
21
-0.905333
0
LINE
8
BLACK
6
CONTINUOUS
10
3.79831
20
-0.905333
11
3.79848
21
-0.905334
0
LINE
8
BLACK
6
CONTINUOUS
10
3.79848
20
-0.905334
11
3.79865
21
-0.905317
0
LINE
8
BLACK
6
CONTINUOUS
10
3.79865
20
-0.905317
11
3.79901
21
-0.905316
0
LINE
8
BLACK
6
CONTINUOUS
10
3.79901
20
-0.905316
11
3.79902
21
-0.905315
0
LINE
8
BLACK
6
CONTINUOUS
10
3.79902
20
-0.905315
11
6.83681
21
-0.905315
0
LINE
8
BLACK
6
CONTINUOUS
10
6.83681
20
-0.905315
11
6.837
21
-0.905334
0
LINE
8
BLACK
6
CONTINUOUS
10
6.837
20
-0.905334
11
6.837
21
-0.905334
0
LINE
8
BLACK
6
CONTINUOUS
10
6.837
20
-0.905334
11
6.85229
21
-0.906833
0
LINE
8
BLACK
6
CONTINUOUS
10
6.85229
20
-0.906833
11
6.85229
21
-0.906833
0
LINE
8
BLACK
6
CONTINUOUS
10
6.85229
20
-0.906833
11
6.85235
21
-0.906839
0
LINE
8
BLACK
6
CONTINUOUS
10
3.72441
20
-5.63026
11
3.72596
21
-5.64496
0
LINE
8
BLACK
6
CONTINUOUS
10
3.72596
20
-5.64496
11
3.73027
21
-5.6589
0
LINE
8
BLACK
6
CONTINUOUS
10
3.73027
20
-5.6589
11
3.73721
21
-5.67174
0
LINE
8
BLACK
6
CONTINUOUS
10
3.73721
20
-5.67174
11
3.74652
21
-5.68299
0
LINE
8
BLACK
6
CONTINUOUS
10
3.74652
20
-5.68299
11
3.75783
21
-5.69221
0
LINE
8
BLACK
6
CONTINUOUS
10
3.75783
20
-5.69221
11
3.77071
21
-5.69906
0
LINE
8
BLACK
6
CONTINUOUS
10
3.77071
20
-5.69906
11
3.78469
21
-5.70328
0
LINE
8
BLACK
6
CONTINUOUS
10
3.78469
20
-5.70328
11
3.79941
21
-5.70472
0
LINE
8
BLACK
6
CONTINUOUS
10
3.79941
20
-5.70472
11
6.83661
21
-5.70472
0
LINE
8
BLACK
6
CONTINUOUS
10
6.83661
20
-5.70472
11
6.83695
21
-5.70472
0
LINE
8
BLACK
6
CONTINUOUS
10
6.83695
20
-5.70472
11
6.85165
21
-5.70318
0
LINE
8
BLACK
6
CONTINUOUS
10
6.85165
20
-5.70318
11
6.8656
21
-5.69886
0
LINE
8
BLACK
6
CONTINUOUS
10
6.8656
20
-5.69886
11
6.87844
21
-5.69192
0
LINE
8
BLACK
6
CONTINUOUS
10
6.87844
20
-5.69192
11
6.88968
21
-5.68262
0
LINE
8
BLACK
6
CONTINUOUS
10
6.88968
20
-5.68262
11
6.89891
21
-5.67131
0
LINE
8
BLACK
6
CONTINUOUS
10
6.89891
20
-5.67131
11
6.90576
21
-5.65842
0
LINE
8
BLACK
6
CONTINUOUS
10
6.90576
20
-5.65842
11
6.90998
21
-5.64445
0
LINE
8
BLACK
6
CONTINUOUS
10
6.90998
20
-5.64445
11
6.91142
21
-5.62973
0
LINE
8
BLACK
6
CONTINUOUS
10
6.91142
20
-5.62973
11
6.91142
21
-1.07264
0
LINE
8
BLACK
6
CONTINUOUS
10
6.91142
20
-1.07264
11
6.91142
21
-1.0128
0
LINE
8
BLACK
6
CONTINUOUS
10
6.91142
20
-1.0128
11
6.91142
21
-1.0128
0
LINE
8
BLACK
6
CONTINUOUS
10
6.91142
20
-1.0128
11
6.91142
21
-0.987995
0
LINE
8
BLACK
6
CONTINUOUS
10
6.91142
20
-0.987995
11
6.91142
21
-0.987656
0
LINE
8
BLACK
6
CONTINUOUS
10
6.91142
20
-0.987656
11
6.90987
21
-0.972955
0
LINE
8
BLACK
6
CONTINUOUS
10
6.90987
20
-0.972955
11
6.90556
21
-0.959012
0
LINE
8
BLACK
6
CONTINUOUS
10
6.90556
20
-0.959012
11
6.89862
21
-0.946173
0
LINE
8
BLACK
6
CONTINUOUS
10
6.89862
20
-0.946173
11
6.88931
21
-0.934927
0
LINE
8
BLACK
6
CONTINUOUS
10
6.88931
20
-0.934927
11
6.878
21
-0.925703
0
LINE
8
BLACK
6
CONTINUOUS
10
6.878
20
-0.925703
11
6.86511
21
-0.918851
0
LINE
8
BLACK
6
CONTINUOUS
10
6.86511
20
-0.918851
11
6.85114
21
-0.914632
0
LINE
8
BLACK
6
CONTINUOUS
10
6.85114
20
-0.914632
11
6.83642
21
-0.913189
0
LINE
8
BLACK
6
CONTINUOUS
10
6.83642
20
-0.913189
11
3.79922
21
-0.913189
0
LINE
8
BLACK
6
CONTINUOUS
10
3.79922
20
-0.913189
11
3.79888
21
-0.91319
0
LINE
8
BLACK
6
CONTINUOUS
10
3.79888
20
-0.91319
11
3.78418
21
-0.914735
0
LINE
8
BLACK
6
CONTINUOUS
10
3.78418
20
-0.914735
11
3.77023
21
-0.919051
0
LINE
8
BLACK
6
CONTINUOUS
10
3.77023
20
-0.919051
11
3.75739
21
-0.925993
0
LINE
8
BLACK
6
CONTINUOUS
10
3.75739
20
-0.925993
11
3.74615
21
-0.935297
0
LINE
8
BLACK
6
CONTINUOUS
10
3.74615
20
-0.935297
11
3.73692
21
-0.946607
0
LINE
8
BLACK
6
CONTINUOUS
10
3.73692
20
-0.946607
11
3.73007
21
-0.959494
0
LINE
8
BLACK
6
CONTINUOUS
10
3.73007
20
-0.959494
11
3.72585
21
-0.973466
0
LINE
8
BLACK
6
CONTINUOUS
10
3.72585
20
-0.973466
11
3.72441
21
-0.988185
0
LINE
8
BLACK
6
CONTINUOUS
10
3.72441
20
-0.988185
11
3.72441
21
-5.62992
0
LINE
8
BLACK
6
CONTINUOUS
10
3.72441
20
-5.62992
11
3.72441
21
-5.63026
  0
ENDSEC
  0
EOF
