M48
; DRILL file {KiCad 5.1.9-73d0e3b20d~88~ubuntu20.04.1} date Sat Mar 20 19:20:49 2021
; FORMAT={-:-/ absolute / inch / decimal}
; #@! TF.CreationDate,2021-03-20T19:20:49-05:00
; #@! TF.GenerationSoftware,Kicad,Pcbnew,5.1.9-73d0e3b20d~88~ubuntu20.04.1
FMAT,2
INCH
T1C0.0276
T2C0.0354
T3C0.0394
T4C0.0400
T5C0.0591
T6C0.0669
T7C0.1201
T8C0.1260
T9C0.1575
%
G90
G05
T1
X5.0779Y-1.5943
X5.3779Y-1.5943
X5.5629Y-1.0393
X5.5629Y-1.1243
X5.8629Y-1.0393
X5.8629Y-1.1243
X6.2929Y-1.0266
X6.2929Y-1.1343
X6.5929Y-1.0266
X6.5929Y-1.1343
T2
X5.1389Y-1.0453
X5.1389Y-1.1453
X5.1779Y-1.4643
X5.2779Y-1.4643
X5.3169Y-1.0453
X5.3169Y-1.1453
T3
X6.1429Y-1.3843
X6.1429Y-1.4827
X6.1429Y-1.5811
X6.7138Y-1.3843
X6.7138Y-1.5811
T4
X3.8829Y-1.2243
X3.8829Y-1.8243
X3.9829Y-1.2243
X3.9829Y-1.8243
X4.0829Y-1.2243
X4.0829Y-1.8243
X4.1829Y-1.2243
X4.1829Y-1.8243
X4.2829Y-1.2243
X4.2829Y-1.8243
X4.3829Y-1.2243
X4.3829Y-1.8243
X4.4829Y-1.2243
X4.4829Y-1.8243
X4.5829Y-1.2243
X4.5829Y-1.8243
X4.6829Y-1.2243
X4.6829Y-1.8243
X4.7829Y-1.2243
X4.7829Y-1.8243
X4.8829Y-1.2243
X4.8829Y-1.8243
X4.9829Y-1.2243
X4.9829Y-1.8243
T5
X4.0429Y-2.1343
X4.0429Y-2.8843
X4.0429Y-3.6343
X4.0429Y-4.3843
X4.2929Y-2.0343
X4.2929Y-2.7843
X4.2929Y-3.5343
X4.2929Y-4.2843
X4.4179Y-5.1343
X4.6679Y-5.0343
X4.7929Y-2.1343
X4.7929Y-2.8843
X4.7929Y-3.6343
X4.7929Y-4.3843
X5.0429Y-2.0343
X5.0429Y-2.7843
X5.0429Y-3.5343
X5.0429Y-4.2843
X5.5429Y-1.3843
X5.5429Y-2.1343
X5.5429Y-2.8843
X5.5429Y-3.6343
X5.5429Y-4.3843
X5.5429Y-5.1343
X5.7929Y-1.2843
X5.7929Y-2.0343
X5.7929Y-2.7843
X5.7929Y-3.5343
X5.7929Y-4.2843
X5.7929Y-5.0343
X6.2929Y-2.1343
X6.2929Y-3.2593
X6.2929Y-4.7593
X6.5429Y-2.0343
X6.5429Y-3.1593
X6.5429Y-4.6593
T6
X3.9929Y-2.2343
X3.9929Y-2.9843
X3.9929Y-3.7343
X3.9929Y-4.4843
X4.3679Y-5.2343
X4.3929Y-2.2343
X4.3929Y-2.9843
X4.3929Y-3.7343
X4.3929Y-4.4843
X4.7429Y-2.2343
X4.7429Y-2.9843
X4.7429Y-3.7343
X4.7429Y-4.4843
X4.7679Y-5.2343
X5.1429Y-2.2343
X5.1429Y-2.9843
X5.1429Y-3.7343
X5.1429Y-4.4843
X5.4929Y-1.4843
X5.4929Y-2.2343
X5.4929Y-2.9843
X5.4929Y-3.7343
X5.4929Y-4.4843
X5.4929Y-5.2343
X5.8929Y-1.4843
X5.8929Y-2.2343
X5.8929Y-2.9843
X5.8929Y-3.7343
X5.8929Y-4.4843
X5.8929Y-5.2343
X6.2429Y-2.2343
X6.2429Y-3.3593
X6.2429Y-4.8593
X6.6429Y-2.2343
X6.6429Y-3.3593
X6.6429Y-4.8593
T7
X4.0994Y-4.9587
X5.0364Y-4.9587
X6.1673Y-2.8907
X6.1673Y-3.8278
X6.1673Y-4.3907
X6.1673Y-5.3278
T8
X3.8429Y-1.0343
X3.8429Y-5.5843
X6.7929Y-1.0343
X6.7929Y-5.5843
T9
X4.0994Y-5.5587
X4.1929Y-2.2343
X4.1929Y-2.9843
X4.1929Y-3.7343
X4.1929Y-4.4843
X4.5679Y-5.2343
X4.9429Y-2.2343
X4.9429Y-2.9843
X4.9429Y-3.7343
X4.9429Y-4.4843
X5.0364Y-5.5587
X5.6929Y-1.4843
X5.6929Y-2.2343
X5.6929Y-2.9843
X5.6929Y-3.7343
X5.6929Y-4.4843
X5.6929Y-5.2343
X6.4429Y-2.2343
X6.4429Y-3.3593
X6.4429Y-4.8593
X6.7673Y-2.8907
X6.7673Y-3.8278
X6.7673Y-4.3907
X6.7673Y-5.3278
T5
G00X6.4126Y-1.2622
M15
G01X6.4638Y-1.2622
M16
G05
G00X6.4126Y-1.7031
M15
G01X6.4638Y-1.7031
M16
G05
T0
M30
